<?xml version="1.0" encoding="utf-8"?>
<!-- Generator: Adobe Illustrator 19.2.1, SVG Export Plug-In . SVG Version: 6.00 Build 0)  -->
<svg version="1.1" id="Layer_1" xmlns="http://www.w3.org/2000/svg" xmlns:xlink="http://www.w3.org/1999/xlink" x="0px" y="0px"
	 viewBox="0 0 718.6 512" style="enable-background:new 0 0 718.6 512;" xml:space="preserve">
<style type="text/css">
	.st0{fill:#6592A8;}
	.st1{fill:#82B4CD;}
	.st2{fill:#EAEAEA;}
	.st3{fill:#ADADAD;}
	.st4{fill:#FFFFFF;}
	.st5{fill:#555555;}
	.st6{fill:#333333;}
	.st7{fill:#D6D6D6;}
	.st8{fill:none;stroke:#007AD9;stroke-width:1.6865;stroke-linecap:round;stroke-linejoin:round;stroke-miterlimit:10;}
	.st9{fill:none;stroke:#333333;stroke-width:1.6865;stroke-linecap:round;stroke-linejoin:round;stroke-miterlimit:10;}
	.st10{fill:#FFFFFF;stroke:#D6B3D1;stroke-width:1.6865;stroke-linecap:round;stroke-linejoin:round;stroke-miterlimit:10;}
	.st11{fill:none;stroke:#D6B3D1;stroke-width:1.6865;stroke-linecap:round;stroke-linejoin:round;stroke-miterlimit:10;}
	.st12{fill:#B575AC;}
	.st13{fill:#F1B538;}
	.st14{fill:#7FA963;}
	.st15{fill:#5B8397;}
	.st16{fill:#F4F4F4;}
	.st17{fill:#F5D089;}
	.st18{fill:#903B38;}
	.st19{fill:#F1A833;}
	.st20{fill:none;stroke:#555555;stroke-width:1.6865;stroke-linecap:round;stroke-linejoin:round;stroke-miterlimit:10;}
	.st21{fill:#7A5C23;}
	.st22{fill:#664E1D;}
	.st23{fill:#8F8F8F;}
	.st24{fill:#DBDBDB;}
	.st25{fill:#7C3231;}
	.st26{fill:#678850;}
	.st27{fill:#2A3C47;}
	.st28{fill:#334A55;}
	.st29{fill:none;stroke:#96C0D5;stroke-width:0.8;stroke-linecap:round;stroke-linejoin:round;stroke-miterlimit:10;}
	.st30{fill:none;stroke:#ADADAD;stroke-width:0.8;stroke-linecap:round;stroke-linejoin:round;stroke-miterlimit:10;}
	.st31{fill:none;stroke:#333333;stroke-width:0.8;stroke-linecap:round;stroke-linejoin:round;stroke-miterlimit:10;}
	.st32{fill:#C089B8;}
	.st33{fill:#D6B3D1;}
	.st34{fill:#2F2F2F;}
	.st35{fill:#476776;}
	.st36{fill:#3D5966;}
	.st37{fill:#424242;}
	.st38{fill:#9FA7A8;}
	.st39{fill:#9E9E9E;}
	.st40{fill:#A66B9E;}
	.st41{fill:#E6D1E4;}
</style>
<g>
	<path class="st0" d="M718.6,359.5c0,95.3-160.9,152.5-359.3,152.5S0,453.7,0,359.5c0-82,160.9-148.5,359.3-148.5
		S718.6,277.4,718.6,359.5z"/>
	<ellipse class="st1" cx="359.3" cy="350.2" rx="359.3" ry="148.5"/>
	<polygon class="st2" points="421.7,3.1 421.7,219.6 545.4,279.1 545.4,53.2 	"/>
	<polygon class="st3" points="545.4,53.2 551.7,50 551.7,276 545.4,279.1 	"/>
	<g>
		<polygon class="st4" points="540.7,191.4 540.7,191.4 540.7,191.4 		"/>
		<path class="st5" d="M540.6,180.4l-115.3-49.7c-1.5-0.7-3.2-0.8-4.7-0.2l-0.6,0.1l-47,16.2c-1.4,0.1-2.8,0.9-3.6,2.6
			c-1.4,3.1-0.1,5.9,2.9,7.3l115.3,49.7c1.8,0.9,3.8,0.7,5.5-0.1l47.5-14.9c1.2-0.6,2.2-1.6,2.8-2.9
			C545,185.5,543.7,181.8,540.6,180.4z"/>
		<path class="st4" d="M540.7,191.4l-0.7,0.3C540.3,191.6,540.5,191.5,540.7,191.4z"/>
	</g>
	<path class="st6" d="M491.3,195.3l-115.5-47.6c-1.4-1.4-4.8-1.3-6.3,1.7c-1.4,3.1-0.1,5.9,2.9,7.3l115.3,49.7
		c3.1,1.4,6.7,0.1,8.1-2.9C497.3,200.4,496,196.8,491.3,195.3z"/>
	<polygon class="st7" points="551.7,50 545.4,53.2 421.7,3.1 428,0 	"/>
	<line class="st8" x1="390.4" y1="150.3" x2="430.3" y2="138"/>
	<line class="st8" x1="384" y1="147.6" x2="423.8" y2="135.3"/>
	<line class="st8" x1="371.3" y1="147.4" x2="420" y2="130.6"/>
	<polygon class="st7" points="502.4,85.6 528.8,96.4 528.8,102.3 502.4,91.2 	"/>
	<path class="st8" d="M425.2,117.4"/>
	<g>
		<g>
			<line class="st9" x1="451.6" y1="174.9" x2="491.5" y2="162.6"/>
			<line class="st9" x1="444.1" y1="171.6" x2="484" y2="159.4"/>
			<line class="st9" x1="436.6" y1="169.1" x2="476.5" y2="156.8"/>
			<line class="st9" x1="431.5" y1="165.8" x2="471.4" y2="153.6"/>
			<line class="st9" x1="420.5" y1="164.4" x2="460.3" y2="152.1"/>
			<line class="st9" x1="414.1" y1="161.2" x2="454" y2="149"/>
			<line class="st9" x1="407.6" y1="158.2" x2="447.5" y2="146"/>
			<line class="st9" x1="500.8" y1="199.5" x2="539.5" y2="187.4"/>
			<line class="st9" x1="498.2" y1="195.2" x2="538.1" y2="182.9"/>
			<line class="st9" x1="491.3" y1="192.3" x2="531.2" y2="180"/>
		</g>
	</g>
	<polygon class="st10" points="431.1,28.9 431.1,59.5 471.4,75.9 471.4,45 	"/>
	<polygon class="st11" points="428.3,30.4 428.3,61 468.5,77.4 468.5,46.5 	"/>
	<path class="st12" d="M435.6,48.1l0.6-0.8c0.1-0.2,0.3-0.2,0.5,0c0,0,0.8,0.9,1.5,1.3l0-2.1c-1.1-0.9-2.7-2.3-2.7-3.9
		c0-1.3,0.9-2.1,2.7-1.7v-0.4c0-0.1,0.1-0.2,0.3-0.2l0.2,0.1c0.1,0,0.3,0.2,0.3,0.3v0.4c1.2,0.5,2.1,1.4,2.5,1.8
		c0.2,0.1,0.1,0.4,0.1,0.4l-0.8,0.8c-0.1,0.1-0.3,0.1-0.4,0c-0.1-0.1-0.8-0.8-1.4-1.3v1.9c1,0.8,2.8,2.3,2.8,4.1
		c0,1.4-1.1,2.2-2.8,1.7V52c0,0.1-0.1,0.2-0.3,0.1l-0.2-0.1c-0.1,0-0.3-0.2-0.3-0.3v-1.4c-1.5-0.6-2.3-1.5-2.5-1.9
		C435.5,48.3,435.5,48.2,435.6,48.1z M438.1,42.5c-0.4-0.1-0.7,0.1-0.7,0.4c0,0.4,0.2,0.8,0.7,1.3V42.5z M439.6,48.4
		c0-0.4-0.2-0.9-0.7-1.4V49C439.3,49,439.6,48.8,439.6,48.4z"/>
	<g>
		<path class="st12" d="M446.1,49.4l-2.3-1c-0.2-0.1-0.4-0.4-0.4-0.6v-1.5c0-0.1,0.1-0.3,0.1-0.3l3.5-1.3l2.2,0.9
			c0.2,0.1,0.4,0.4,0.4,0.6v15.3c0,0.2-0.2,0.4-0.4,0.3l-2.6-1.1c-0.3-0.1-0.5-0.4-0.5-0.6V49.4z"/>
		<path class="st12" d="M455.6,56.2L455.6,56.2c-0.9-1-2.5-2.9-2.5-4.8c0-2.7,2.4-3.4,5.3-2.1c3,1.3,5.4,4,5.4,6.7
			c0,1.8-1.5,2.4-2.5,2.6v0.1c1.1,1,2.9,3.2,2.9,5.2c0,2.6-2.3,3.6-5.9,2.1c-3.5-1.5-5.8-4.4-5.8-7
			C452.7,56.9,455.1,56.3,455.6,56.2z M458.5,63.1c1,0.4,1.9,0.1,1.9-1c0-0.9-0.7-2-2-3c-1.2-0.1-1.9,0.5-1.9,1.4
			C456.5,61.5,457.5,62.7,458.5,63.1z M460.2,54.5c0-0.8-0.8-1.9-1.7-2.3c-0.9-0.4-1.7,0-1.7,0.8c0,0.9,0.5,1.8,1.7,2.7
			C459.6,55.9,460.2,55.3,460.2,54.5z"/>
	</g>
	<polyline class="st13" points="414.1,110.5 415.7,127.4 434.1,127.8 427.9,113.8 424,104.6 	"/>
	<path class="st14" d="M513,90.1c-1.8,2.1-6.8,3.3-9.5,5.2s-3.2,5.3-3.2,5.3s2.7-0.2,4.2,0.9c1.5,1.1,2.7,3.3,4,4
		c1.3,0.7,6,1.4,6,1.4s0-3.4,2.4-5.2c2.4-1.8,7.3-3,9.3-6.2"/>
	<path class="st13" d="M450.6,138.9c0,0,25.9-8.3,28.2-10.5c2.2-2.2,16.9-15.1,19.5-18.5c2.6-3.4,10.2-4.9,9.8-8.5
		c-0.4-3.7-2.7-9-7.2-7.4c-4.5,1.6-3.8,5.9-5.8,8.8c-2,3-17.4,13.7-21.1,14.6s-20.8,8.1-24.2,8.9"/>
	<path class="st15" d="M426.4,215.7l24.8-7.4l-0.5-59.1l21.8-16l-2-14.2l-37.5,5.3c0,0,1.8,1.4-7.8,2.9"/>
	<path class="st16" d="M453.2,308.1c0,0,14.6-5.4,17.2-1.1c0,0,5.6,6-7.4,13s-18.8,9.5-18.8,9.5v-15.6l8.9-2.2V308.1z"/>
	<polygon class="st13" points="340.6,363.8 340.6,373.9 334.5,375.8 334,365 	"/>
	<polygon class="st2" points="320.2,80.7 313.9,83.8 313.9,300.3 437.6,359.8 443.9,356.7 443.9,130.7 	"/>
	<polygon class="st3" points="437.9,359.8 437.9,133.9 314.3,83.8 320.6,80.7 444.3,130.7 444.3,356.7 	"/>
	<g>
		<polygon class="st5" points="433.3,272.1 433.3,272.1 433.3,272.1 		"/>
		<path class="st5" d="M433.2,261.1l-115.3-49.7c-1.5-0.7-3.2-0.8-4.7-0.2l-0.6,0.1l-47,16.2c-1.4,0.1-2.8,0.9-3.6,2.6
			c-1.4,3.1-0.1,5.9,2.9,7.3l115.3,49.7c1.8,0.9,3.8,0.7,5.5-0.1l47.5-14.9c1.2-0.6,2.2-1.6,2.8-2.9
			C437.5,266.2,436.2,262.5,433.2,261.1z"/>
		<path class="st5" d="M433.3,272.1l-0.7,0.3C432.8,272.3,433,272.2,433.3,272.1z"/>
	</g>
	<path class="st6" d="M383.8,276l-115.5-47.6c-1.4-1.4-4.8-1.3-6.3,1.7c-1.4,3.1-0.1,5.9,2.9,7.3l115.3,49.7
		c3.1,1.4,6.7,0.1,8.1-2.9C389.9,281.1,388.5,277.5,383.8,276z"/>
	<polygon class="st7" points="444.3,130.7 437.9,133.9 314.3,83.8 320.6,80.7 	"/>
	<line class="st8" x1="282.9" y1="231" x2="322.8" y2="218.7"/>
	<line class="st8" x1="276.5" y1="228.3" x2="316.4" y2="216.1"/>
	<line class="st8" x1="300.2" y1="238.9" x2="340" y2="226.7"/>
	<line class="st8" x1="263.8" y1="228.2" x2="312.6" y2="211.3"/>
	<polygon class="st7" points="394.9,166.3 421.3,177.2 421.3,183.1 394.9,171.9 	"/>
	<path class="st8" d="M323,330.4c0,0-1.4,14.8-3.9,29.2h-5.9"/>
	<path class="st8" d="M317.7,198.1"/>
	<g>
		<g>
			<line class="st9" x1="344.2" y1="255.6" x2="384.1" y2="243.3"/>
			<line class="st9" x1="336.6" y1="252.4" x2="376.5" y2="240.1"/>
			<line class="st9" x1="329.1" y1="249.8" x2="369" y2="237.5"/>
			<line class="st9" x1="324.1" y1="246.6" x2="363.9" y2="234.3"/>
			<line class="st9" x1="313" y1="245.1" x2="352.9" y2="232.8"/>
			<line class="st9" x1="306.7" y1="241.9" x2="346.6" y2="229.7"/>
			<line class="st9" x1="393.4" y1="280.2" x2="432.1" y2="268.1"/>
			<line class="st9" x1="390.8" y1="275.9" x2="430.7" y2="263.6"/>
			<line class="st9" x1="383.9" y1="273" x2="423.7" y2="260.7"/>
		</g>
	</g>
	<polygon class="st10" points="324.2,109.9 324.2,140.5 364.5,156.9 364.5,126 	"/>
	<polygon class="st11" points="321.4,111.4 321.4,142 361.6,158.3 361.6,127.5 	"/>
	<g>
		<path class="st12" d="M328.7,129l0.6-0.8c0.1-0.2,0.3-0.2,0.5,0c0,0,0.8,0.9,1.5,1.3l0-2.1c-1.1-0.9-2.7-2.3-2.7-3.9
			c0-1.3,0.9-2.1,2.7-1.7v-0.4c0-0.1,0.1-0.2,0.3-0.2l0.2,0.1c0.1,0,0.3,0.2,0.3,0.3v0.4c1.2,0.5,2.1,1.4,2.5,1.8
			c0.2,0.1,0.1,0.4,0.1,0.4l-0.8,0.8c-0.1,0.1-0.3,0.1-0.4,0c-0.1-0.1-0.8-0.8-1.4-1.3v1.9c1,0.8,2.8,2.3,2.8,4.1
			c0,1.4-1.1,2.2-2.8,1.7v1.4c0,0.1-0.1,0.2-0.3,0.1l-0.2-0.1c-0.1,0-0.3-0.2-0.3-0.3v-1.4c-1.5-0.6-2.3-1.5-2.5-1.9
			C328.6,129.2,328.6,129.2,328.7,129z M331.2,123.5c-0.4-0.1-0.7,0.1-0.7,0.4c0,0.4,0.2,0.8,0.7,1.3V123.5z M332.7,129.4
			c0-0.4-0.2-0.9-0.7-1.4v1.9C332.4,130,332.7,129.8,332.7,129.4z"/>
		<g>
			<path class="st12" d="M339.4,138.4l1.4-0.8c0.1-0.1,0.4,0,0.5,0.2c0,0,1.6,1.7,2.6,2.2c1.2,0.5,2.1,0,2.1-1.2
				c0-1.2-0.8-2.5-2.3-3.1l-3.4-1.4c-0.4-0.2-0.7-0.7-0.7-1.1v-6.8c0-0.2,0.2-0.3,0.4-0.2l7.1,3c0.2,0.1,0.4,0.4,0.4,0.6v1.9
				c0,0.2-0.2,0.3-0.4,0.2l-4.5-1.9v2.3l1.6,0.7c3,1.3,5,4.2,5,7.1c0,2.7-2.3,4-5.4,2.7c-2.3-1-3.8-2.8-4.3-3.7
				C339.1,138.7,339.1,138.5,339.4,138.4z"/>
		</g>
	</g>
	<path class="st17" d="M341,275.4c0,0,6.9,36.9,6.4,47.7s-1.2,36.5-1.2,36.5s-2.4,5.2-12.1,5.4s-6.3-1.2-6.3-1.2l-14.2-84.3"/>
	<path class="st13" d="M334,161.3c6.5,3.9,2.1,12.1,2.1,14s0.3,1.6,1.6,4.1c1.3,2.5-1.3,9.2-3.3,13.8c-2.1,5-7.8,1.9-7.8,1.9
		c0,2.4,4.8,5.6,4.8,5.6s-3.6,4.3-14.8,4.3c-7.5,0-8.7-5.6-8.7-5.6s5.9-3.2,4.9-7.1C311.7,187.6,329.3,158.2,334,161.3z"/>
	<path class="st13" d="M326.7,195.4c0,0,5.6,3,7.8-1.9c2-4.7,4.7-11.4,3.3-13.8c-1.3-2.5-1.6-2.2-1.6-4.1s4.3-10.1-2.1-14"/>
	<path class="st18" d="M317.7,148.1c20.2,0.5,22.3,8,22.3,14.4c0,4.4-5.3,5.2-9.1,5.2c-3.2,0-5,2.1-5,5.1c0,3,0,5.9,0,5.9
		s-1.7-1.8-3.2-1c-1.5,0.8-2.1,2.6-1.3,4.7c0.8,2.1,4.1,4,4.1,4s0.4,7-11.7,7c-8.9,0-16.2-8.4-16.2-21.1
		C297.7,164.4,297.5,147.6,317.7,148.1z"/>
	<path class="st19" d="M338,179.9l2.3,3.4c0.6,0.4-1.3,2.6-3.3,2"/>
	<path class="st19" d="M436.6,96.3l8.1,7.9c0.3,1.2-3.1,3.7-4.9,3.7"/>
	<line class="st20" x1="336.7" y1="175" x2="338.3" y2="174.4"/>
	<line class="st20" x1="438.2" y1="99.7" x2="439.8" y2="99"/>
	<path class="st21" d="M334.5,373.2c0,0,3.9,1.5,7.5-2c0,0,4.7,4.5,7.2,5.5c2.5,1,11.8-1.4,12.5,1.1s-6.1,10.3-11.9,10.1
		c-3.4-0.1-7.1-0.7-7.1-0.7v3.8l-8.2,1.4V373.2"/>
	<path class="st22" d="M340.5,372.2c0,0,3.6,9.8-0.6,11.4s-4.2-10-4.2-10L340.5,372.2z"/>
	<path class="st13" d="M440,85.6c0,0-12.1,2.2-13.9,5.3c-1.8,3.1-8.2,13.9-6.2,17.6c1.9,3.6,8.6,10.5,8.6,10.5s8.3,2.8,10.2-1.6
		c1.8-4.1,4.1-10,2.9-12.1c-1.2-2.2-3.2-3.7-3.2-5.4s3.4-1.6,3.4-8.1L440,85.6z"/>
	<path class="st23" d="M428,108.8c0,0,0.3,10.4,2.8,10.7c2.5,0.3,8.2,1.8,10.5,0c3-2.3,1.3-9.4,0.7-12.7c0,0-10,0.3-11.2-2.2
		s-1.2-2.5-1.2-2.5l-2,1L428,108.8z"/>
	<path class="st24" d="M471.3,308.4c0,0-0.3,5.7-11.4,10.9l-15.6,7.8v2.4l20.6-10.5c0,0,6.8-4.1,6.8-8.3
		C471.6,310.7,471.7,309.3,471.3,308.4z"/>
	<path class="st13" d="M444.3,307.7l8.9-2.2l0,6.2c-1.5,2.3-6.9,3.8-8.9,3.5V307.7z"/>
	<path class="st6" d="M449.8,208.2l6.7,55l-3.3,42.2c-3.1,1.8-6.2,4.5-9.3,4.2l0.2-99.5L449.8,208.2z"/>
	<path class="st25" d="M340,162.5c0,4.4-5.3,5.2-9.1,5.2c-3.2,0-5,2.1-5,5.1c0,3,0,5.9,0,5.9s-1.7-1.8-3.2-1
		c-1.5,0.8-2.1,2.6-1.3,4.7c0.8,2.1,4.1,4,4.1,4s0.4,7-11.7,7C305,193.4,340,135.8,340,162.5z"/>
	<g>
		<path class="st14" d="M406.7,171.1c-1.8,2.1-6.8,3.3-9.5,5.2c-2.7,2-3.2,5.3-3.2,5.3s2.7-0.2,4.2,0.9s2.7,3.3,4,4
			c1.3,0.7,6,1.4,6,1.4s0-3.4,2.4-5.2c2.4-1.8,7.3-3,9.3-6.2"/>
		<path class="st26" d="M410.1,178.8l-0.3-0.6c-0.1-0.1,0-0.3,0.2-0.3c0,0,0.8-0.2,1.3-0.4l-1.3-0.8c-0.9,0.4-2.3,0.8-3.3,0.2
			c-0.8-0.5-0.9-1.3,0-2.2l-0.3-0.1c-0.1-0.1-0.1-0.1,0-0.2l0.1-0.1c0.1-0.1,0.2-0.1,0.3,0l0.3,0.2c0.7-0.5,1.6-0.7,2-0.8
			c0.1,0,0.3,0.1,0.3,0.1l0.2,0.8c0,0.1,0,0.2-0.2,0.2c-0.1,0-0.8,0.2-1.3,0.4l1.1,0.7c0.8-0.3,2.3-0.9,3.4-0.2
			c0.8,0.5,0.9,1.4,0,2.3l0.8,0.5c0.1,0,0.1,0.1,0,0.2l-0.1,0.1c-0.1,0.1-0.2,0.1-0.3,0l-0.8-0.5c-0.9,0.7-1.7,0.8-2,0.8
			C410.2,178.9,410.2,178.9,410.1,178.8z M407.7,175.3c-0.2,0.2-0.2,0.5,0,0.6c0.2,0.1,0.5,0.2,1,0L407.7,175.3z M411.8,176.5
			c-0.2-0.1-0.6-0.2-1.1-0.1l1.2,0.7C412,176.9,412,176.7,411.8,176.5z"/>
	</g>
	<path class="st13" d="M346.5,216.1c0,0,25.9-5.7,28.2-8c2.2-2.2,15.1-15.2,17.7-18.6c2.6-3.4,9.1-2.8,8.6-6.4
		c-0.4-3.7-1.5-7.9-6-6.4c-4.5,1.6-2,3.8-3.9,6.8c-2,3-17.4,13.7-21.1,14.6s-20.8,8.1-24.2,8.9"/>
	<path class="st4" d="M339.7,220.4c0.5,0.3,27-6.6,31.2-8.6s16.4-6.4,21-12.3c0,0-2.5-14.1-6.2-14.1c0,0-13.2,12-17.5,12.6
		l-29.9,3.3l-7.7-1c-12.9,7.6-28.4-1.6-28.4-1.6l-4.6,10.9l-4.3,64.1c0,0,16.2,6.4,26.9,6.4c10.7,0,25.4-2.6,25.4-8.8
		c0-6.2-1.2-14-1.5-19.3c-0.3-5.3,0.3-32.3,0.3-32.3L339.7,220.4z"/>
	<path class="st16" d="M345.6,271.5c0,0-0.4,3.8-5,5.4l-0.9-56.4l4.7-0.5l-0.3,32.3L345.6,271.5z"/>
	<path class="st19" d="M186.9,393.8c0.9,13.5,6.1,41,10.3,45.5l7.5,0.2c0,0-4.7-17.2-3.1-40.7C198.9,392.4,192.5,394.4,186.9,393.8z
		"/>
	<g>
		<path class="st27" d="M218,447.8c0,0-4,3.7-8.6,3.8s-5.4-1.9-5.4-1.9l-0.1,3.4l-3.9,2.2l-4.5-1.1V450c0,0-2.6-7.9,0.7-11.5
			c0,0,1.8,0.5,3.8,0.4c1.3-0.1,2.7-1.1,3.5-0.4c2.2,1.8,4.3,5.2,7.2,4.6"/>
		<path class="st28" d="M196.2,438.5l3.8,0.4c0,0-1.2,8,0,11.6l0,4.8l-4.5-1.1V450C195.5,450,192.5,442.3,196.2,438.5z"/>
	</g>
	<g>
		<polygon class="st6" points="95.4,360.8 126.4,375.6 170.4,354.6 140.4,340 		"/>
		<polygon class="st23" points="140.4,340 141.5,366.3 165.6,380 170.4,354.6 		"/>
		<g>
			<g>
				<line class="st29" x1="137.3" y1="344.8" x2="135.4" y2="345.7"/>
				<line class="st29" x1="137.3" y1="348.7" x2="135.4" y2="349.7"/>
				<line class="st29" x1="137.3" y1="352.7" x2="135.4" y2="353.6"/>
				<line class="st29" x1="137.3" y1="356.6" x2="135.4" y2="357.5"/>
				<line class="st29" x1="137.3" y1="360.5" x2="135.4" y2="361.4"/>
				<line class="st29" x1="137.3" y1="364.4" x2="135.4" y2="365.3"/>
			</g>
			<g>
				<line class="st29" x1="132.4" y1="347.2" x2="130.5" y2="348.2"/>
				<line class="st29" x1="132.4" y1="351.2" x2="130.5" y2="352.1"/>
				<line class="st29" x1="132.4" y1="355.1" x2="130.5" y2="356"/>
				<line class="st29" x1="132.4" y1="359" x2="130.5" y2="359.9"/>
				<line class="st29" x1="132.4" y1="362.9" x2="130.5" y2="363.8"/>
				<line class="st29" x1="132.4" y1="366.8" x2="130.5" y2="367.7"/>
			</g>
			<g>
				<line class="st29" x1="127.4" y1="349.7" x2="125.6" y2="350.6"/>
				<line class="st29" x1="127.4" y1="353.6" x2="125.6" y2="354.5"/>
				<line class="st29" x1="127.4" y1="357.5" x2="125.6" y2="358.4"/>
				<line class="st29" x1="127.4" y1="361.4" x2="125.6" y2="362.3"/>
				<line class="st29" x1="127.4" y1="365.3" x2="125.6" y2="366.2"/>
				<line class="st29" x1="127.4" y1="369.2" x2="125.6" y2="370.1"/>
			</g>
			<g>
				<line class="st29" x1="122.5" y1="352.1" x2="120.6" y2="353"/>
				<line class="st29" x1="122.5" y1="356" x2="120.6" y2="356.9"/>
				<line class="st29" x1="122.5" y1="359.9" x2="120.6" y2="360.8"/>
				<line class="st29" x1="122.5" y1="363.8" x2="120.6" y2="364.7"/>
				<line class="st29" x1="122.5" y1="367.7" x2="120.6" y2="368.6"/>
				<line class="st29" x1="122.5" y1="371.6" x2="120.6" y2="372.5"/>
			</g>
			<g>
				<line class="st29" x1="117.6" y1="354.5" x2="115.7" y2="355.4"/>
				<line class="st29" x1="117.6" y1="358.4" x2="115.7" y2="359.3"/>
				<line class="st29" x1="117.6" y1="362.3" x2="115.7" y2="363.2"/>
				<line class="st29" x1="117.6" y1="366.2" x2="115.7" y2="367.1"/>
				<line class="st29" x1="117.6" y1="370.1" x2="115.7" y2="371"/>
				<line class="st29" x1="117.6" y1="374" x2="115.7" y2="374.9"/>
			</g>
			<g>
				<line class="st29" x1="112.6" y1="356.9" x2="110.8" y2="357.8"/>
				<line class="st29" x1="112.6" y1="360.8" x2="110.8" y2="361.7"/>
				<line class="st29" x1="112.6" y1="364.7" x2="110.8" y2="365.6"/>
				<line class="st29" x1="112.6" y1="368.6" x2="110.8" y2="369.5"/>
				<line class="st29" x1="112.6" y1="372.5" x2="110.8" y2="373.4"/>
				<line class="st29" x1="112.6" y1="376.4" x2="110.8" y2="377.4"/>
			</g>
			<g>
				<line class="st29" x1="107.7" y1="359.3" x2="105.8" y2="360.2"/>
				<line class="st29" x1="107.7" y1="363.2" x2="105.8" y2="364.1"/>
				<line class="st29" x1="107.7" y1="367.1" x2="105.8" y2="368"/>
				<line class="st29" x1="107.7" y1="371" x2="105.8" y2="371.9"/>
				<line class="st29" x1="107.7" y1="374.9" x2="105.8" y2="375.9"/>
				<line class="st29" x1="107.7" y1="378.9" x2="105.8" y2="379.8"/>
			</g>
			<g>
				<line class="st29" x1="102.8" y1="361.7" x2="100.9" y2="362.6"/>
				<line class="st29" x1="102.8" y1="365.6" x2="100.9" y2="366.5"/>
				<line class="st29" x1="102.8" y1="369.5" x2="100.9" y2="370.4"/>
				<line class="st29" x1="102.8" y1="373.4" x2="100.9" y2="374.4"/>
				<line class="st29" x1="102.8" y1="377.4" x2="100.9" y2="378.3"/>
				<line class="st29" x1="102.8" y1="381.3" x2="100.9" y2="382.2"/>
			</g>
		</g>
		<g>
			<g>
				<line class="st29" x1="142.9" y1="344.8" x2="144.8" y2="345.7"/>
				<line class="st29" x1="142.9" y1="348.7" x2="144.8" y2="349.7"/>
				<line class="st29" x1="142.9" y1="352.7" x2="144.8" y2="353.6"/>
				<line class="st29" x1="142.9" y1="356.6" x2="144.8" y2="357.5"/>
				<line class="st29" x1="142.9" y1="360.5" x2="144.8" y2="361.4"/>
				<line class="st29" x1="142.9" y1="364.4" x2="144.8" y2="365.3"/>
			</g>
			<g>
				<line class="st29" x1="147.9" y1="347.2" x2="149.7" y2="348.2"/>
				<line class="st29" x1="147.9" y1="351.2" x2="149.7" y2="352.1"/>
				<line class="st29" x1="147.9" y1="355.1" x2="149.7" y2="356"/>
				<line class="st29" x1="147.9" y1="359" x2="149.7" y2="359.9"/>
				<line class="st29" x1="147.9" y1="362.9" x2="149.7" y2="363.8"/>
				<line class="st29" x1="147.9" y1="366.8" x2="149.7" y2="367.7"/>
			</g>
			<g>
				<line class="st29" x1="152.8" y1="349.7" x2="154.7" y2="350.6"/>
				<line class="st29" x1="152.8" y1="353.6" x2="154.7" y2="354.5"/>
				<line class="st29" x1="152.8" y1="357.5" x2="154.7" y2="358.4"/>
				<line class="st29" x1="152.8" y1="361.4" x2="154.7" y2="362.3"/>
				<line class="st29" x1="152.8" y1="365.3" x2="154.7" y2="366.2"/>
				<line class="st29" x1="152.8" y1="369.2" x2="154.7" y2="370.1"/>
			</g>
			<g>
				<line class="st29" x1="157.7" y1="352.1" x2="159.6" y2="353"/>
				<line class="st29" x1="157.7" y1="356" x2="159.6" y2="356.9"/>
				<line class="st29" x1="157.7" y1="359.9" x2="159.6" y2="360.8"/>
				<line class="st29" x1="157.7" y1="363.8" x2="159.6" y2="364.7"/>
				<line class="st29" x1="157.7" y1="367.7" x2="159.6" y2="368.6"/>
				<line class="st29" x1="157.7" y1="371.6" x2="159.6" y2="372.5"/>
			</g>
			<g>
				<line class="st29" x1="162.7" y1="354.5" x2="164.5" y2="355.4"/>
				<line class="st29" x1="162.7" y1="358.4" x2="164.5" y2="359.3"/>
				<line class="st29" x1="162.7" y1="362.3" x2="164.5" y2="363.2"/>
				<line class="st29" x1="162.7" y1="366.2" x2="164.5" y2="367.1"/>
				<line class="st29" x1="162.7" y1="370.1" x2="164.5" y2="371"/>
				<line class="st29" x1="162.7" y1="374" x2="164.5" y2="374.9"/>
			</g>
		</g>
		<polygon class="st3" points="95.4,360.8 99.6,385.1 126.6,399.5 126.4,375.6 		"/>
		<polygon class="st5" points="170.4,354.6 165.6,380 126.6,399.5 126.4,375.6 		"/>
		<g>
			<line class="st30" x1="163.3" y1="361.3" x2="161.6" y2="362.1"/>
			<line class="st30" x1="163.3" y1="364.8" x2="161.6" y2="365.6"/>
			<line class="st30" x1="163.3" y1="368.3" x2="161.6" y2="369.1"/>
			<line class="st30" x1="163.3" y1="371.8" x2="161.6" y2="372.7"/>
			<line class="st31" x1="163.3" y1="375.3" x2="161.6" y2="376.2"/>
			<line class="st31" x1="163.3" y1="378.9" x2="161.6" y2="379.7"/>
			<line class="st30" x1="158.9" y1="363.5" x2="157.2" y2="364.3"/>
			<line class="st30" x1="158.9" y1="367" x2="157.2" y2="367.8"/>
			<line class="st30" x1="158.9" y1="370.5" x2="157.2" y2="371.3"/>
			<line class="st31" x1="158.9" y1="374" x2="157.2" y2="374.8"/>
			<line class="st31" x1="158.9" y1="377.5" x2="157.2" y2="378.3"/>
			<line class="st31" x1="158.9" y1="381" x2="157.2" y2="381.8"/>
			<line class="st30" x1="154.4" y1="365.6" x2="152.8" y2="366.4"/>
			<line class="st30" x1="154.4" y1="369.1" x2="152.8" y2="370"/>
			<line class="st31" x1="154.4" y1="372.7" x2="152.8" y2="373.5"/>
			<line class="st31" x1="154.4" y1="376.2" x2="152.8" y2="377"/>
			<line class="st31" x1="154.4" y1="379.7" x2="152.8" y2="380.5"/>
			<line class="st31" x1="154.4" y1="383.2" x2="152.8" y2="384"/>
			<g>
				<line class="st30" x1="150" y1="367.8" x2="148.3" y2="368.6"/>
				<line class="st31" x1="150" y1="371.3" x2="148.3" y2="372.1"/>
				<line class="st31" x1="150" y1="374.8" x2="148.3" y2="375.6"/>
				<line class="st31" x1="150" y1="378.3" x2="148.3" y2="379.2"/>
				<line class="st31" x1="150" y1="381.8" x2="148.3" y2="382.7"/>
				<line class="st31" x1="150" y1="385.4" x2="148.3" y2="386.2"/>
			</g>
			<g>
				<line class="st31" x1="145.6" y1="370" x2="143.9" y2="370.8"/>
				<line class="st31" x1="145.6" y1="373.5" x2="143.9" y2="374.3"/>
				<line class="st31" x1="145.6" y1="377" x2="143.9" y2="377.8"/>
				<line class="st31" x1="145.6" y1="380.5" x2="143.9" y2="381.3"/>
				<line class="st31" x1="145.6" y1="384" x2="143.9" y2="384.8"/>
				<line class="st31" x1="145.6" y1="387.5" x2="143.9" y2="388.3"/>
			</g>
			<g>
				<line class="st31" x1="141.1" y1="372.1" x2="139.5" y2="372.9"/>
				<line class="st31" x1="141.1" y1="375.6" x2="139.5" y2="376.5"/>
				<line class="st31" x1="141.1" y1="379.2" x2="139.5" y2="380"/>
				<line class="st31" x1="141.1" y1="382.7" x2="139.5" y2="383.5"/>
				<line class="st31" x1="141.1" y1="386.2" x2="139.5" y2="387"/>
				<line class="st31" x1="141.1" y1="389.7" x2="139.5" y2="390.5"/>
			</g>
			<g>
				<line class="st31" x1="136.7" y1="374.3" x2="135" y2="375.1"/>
				<line class="st31" x1="136.7" y1="377.8" x2="135" y2="378.6"/>
				<line class="st31" x1="136.7" y1="381.3" x2="135" y2="382.1"/>
				<line class="st31" x1="136.7" y1="384.8" x2="135" y2="385.7"/>
				<line class="st31" x1="136.7" y1="388.3" x2="135" y2="389.2"/>
				<line class="st31" x1="136.7" y1="391.9" x2="135" y2="392.7"/>
			</g>
			<g>
				<line class="st31" x1="132.3" y1="376.5" x2="130.6" y2="377.3"/>
				<line class="st31" x1="132.3" y1="380" x2="130.6" y2="380.8"/>
				<line class="st31" x1="132.3" y1="383.5" x2="130.6" y2="384.3"/>
				<line class="st31" x1="132.3" y1="387" x2="130.6" y2="387.8"/>
				<line class="st31" x1="132.3" y1="390.5" x2="130.6" y2="391.3"/>
				<line class="st31" x1="132.3" y1="394" x2="130.6" y2="394.8"/>
			</g>
		</g>
		<g>
			<g>
				<line class="st31" x1="100.3" y1="366" x2="102" y2="366.9"/>
				<line class="st31" x1="100.3" y1="369.6" x2="102" y2="370.4"/>
				<line class="st31" x1="100.3" y1="373.1" x2="102" y2="373.9"/>
				<line class="st31" x1="100.3" y1="376.6" x2="102" y2="377.4"/>
				<line class="st31" x1="100.3" y1="380.1" x2="102" y2="380.9"/>
				<line class="st31" x1="100.3" y1="383.6" x2="102" y2="384.4"/>
			</g>
			<g>
				<line class="st31" x1="104.7" y1="368.2" x2="106.4" y2="369"/>
				<line class="st31" x1="104.7" y1="371.7" x2="106.4" y2="372.5"/>
				<line class="st31" x1="104.7" y1="375.2" x2="106.4" y2="376.1"/>
				<line class="st31" x1="104.7" y1="378.8" x2="106.4" y2="379.6"/>
				<line class="st31" x1="104.7" y1="382.3" x2="106.4" y2="383.1"/>
				<line class="st31" x1="104.7" y1="385.8" x2="106.4" y2="386.6"/>
			</g>
			<g>
				<line class="st31" x1="109.2" y1="370.4" x2="110.8" y2="371.2"/>
				<line class="st31" x1="109.2" y1="373.9" x2="110.8" y2="374.7"/>
				<line class="st31" x1="109.2" y1="377.4" x2="110.8" y2="378.2"/>
				<line class="st31" x1="109.2" y1="380.9" x2="110.8" y2="381.7"/>
				<line class="st31" x1="109.2" y1="384.4" x2="110.8" y2="385.3"/>
				<line class="st31" x1="109.2" y1="387.9" x2="110.8" y2="388.8"/>
			</g>
			<g>
				<line class="st31" x1="113.6" y1="372.5" x2="115.3" y2="373.4"/>
				<line class="st31" x1="113.6" y1="376.1" x2="115.3" y2="376.9"/>
				<line class="st31" x1="113.6" y1="379.6" x2="115.3" y2="380.4"/>
				<line class="st31" x1="113.6" y1="383.1" x2="115.3" y2="383.9"/>
				<line class="st31" x1="113.6" y1="386.6" x2="115.3" y2="387.4"/>
				<line class="st31" x1="113.6" y1="390.1" x2="115.3" y2="390.9"/>
			</g>
			<g>
				<line class="st31" x1="118" y1="374.7" x2="119.7" y2="375.5"/>
				<line class="st31" x1="118" y1="378.2" x2="119.7" y2="379"/>
				<line class="st31" x1="118" y1="381.7" x2="119.7" y2="382.6"/>
				<line class="st31" x1="118" y1="385.3" x2="119.7" y2="386.1"/>
				<line class="st31" x1="118" y1="388.8" x2="119.7" y2="389.6"/>
				<line class="st31" x1="118" y1="392.3" x2="119.7" y2="393.1"/>
			</g>
			<g>
				<line class="st31" x1="122.1" y1="377.1" x2="123.8" y2="377.9"/>
				<line class="st31" x1="122.1" y1="380.6" x2="123.8" y2="381.4"/>
				<line class="st31" x1="122.1" y1="384.1" x2="123.8" y2="384.9"/>
				<line class="st31" x1="122.1" y1="387.6" x2="123.8" y2="388.4"/>
				<line class="st31" x1="122.1" y1="391.1" x2="123.8" y2="391.9"/>
				<line class="st31" x1="122.1" y1="394.6" x2="123.8" y2="395.5"/>
			</g>
		</g>
		<path class="st2" d="M145.9,366.3l-19.3,24.5L98.2,377l-0.6-3.5l-2.2,5l32.7,16.6l20.3-26.2C150.9,366,147.1,364.3,145.9,366.3z"
			/>
		<path class="st7" d="M145.9,366.3l-19.3,24.5l1.4,4.3l20.3-26.2C150.9,366,147.1,364.3,145.9,366.3z"/>
	</g>
	<polygon class="st2" points="204.5,161.8 204.5,378.3 328.1,437.8 328.1,211.9 	"/>
	<path class="st13" d="M219,260.3c-1.3-2.5-1.6-2.2-1.6-4.1c0-1.9,4.3-10.1-2.1-14c0,0-7.6-2.5-14.7,2.8s-6.4,28.2-6.4,28.2
		c0.1,4.1-4.9,7.1-4.9,7.1s-0.1,6.6,8.9,6.6c11.2,0,12.3-6.3,12.3-6.3s-2.5-2.2-2.5-4.6c0,0,5.6,3,7.8-1.9
		C217.7,269.5,220.4,262.8,219,260.3z"/>
	<path class="st13" d="M198.6,416.7c-0.3-7.7,0.6-17.2,0.6-17.2l14.3,7.9c0,0-2.8,28.3-4.8,32.2c-2.2,0.5-3.9,0.4-6.3,0
		C202.5,439.6,198.9,424.4,198.6,416.7z"/>
	<polygon class="st3" points="328.2,211.9 334.5,208.8 334.5,434.7 328.2,437.8 	"/>
	<g>
		<g>
			<polygon class="st5" points="323.5,350.1 323.5,350.1 323.5,350.1 			"/>
			<path class="st5" d="M323.4,339.1L208,289.4c-1.5-0.7-3.2-0.8-4.7-0.2l-0.6,0.1l-47,16.2c-1.4,0.1-2.8,0.9-3.6,2.6
				c-1.4,3.1-0.1,5.9,2.9,7.3l115.3,49.7c1.8,0.9,3.8,0.7,5.5-0.1l47.5-14.9c1.2-0.6,2.2-1.6,2.8-2.9
				C327.7,344.2,326.4,340.5,323.4,339.1z"/>
			<path class="st5" d="M323.5,350.1l-0.7,0.3C323,350.3,323.3,350.2,323.5,350.1z"/>
		</g>
	</g>
	<path class="st6" d="M274.1,354l-115.5-47.6c-1.4-1.4-4.8-1.3-6.3,1.7c-1.4,3.1-0.1,5.9,2.9,7.3L270.6,365c3.1,1.4,6.7,0.1,8.1-2.9
		C280.2,359.1,278.9,355.4,274.1,354z"/>
	<polygon class="st7" points="334.5,208.8 328.1,211.9 204.5,161.8 210.8,158.7 	"/>
	<line class="st9" x1="234.4" y1="333.6" x2="274.3" y2="321.3"/>
	<line class="st9" x1="226.9" y1="330.4" x2="266.7" y2="318.1"/>
	<line class="st9" x1="219.3" y1="327.8" x2="259.2" y2="315.5"/>
	<line class="st9" x1="214.3" y1="324.6" x2="254.2" y2="312.3"/>
	<line class="st9" x1="203.2" y1="323.1" x2="243.1" y2="310.8"/>
	<line class="st9" x1="196.9" y1="320" x2="236.8" y2="307.7"/>
	<line class="st9" x1="173.1" y1="309" x2="213" y2="296.7"/>
	<line class="st9" x1="166.7" y1="306.4" x2="206.6" y2="294.1"/>
	<line class="st9" x1="190.4" y1="317" x2="230.3" y2="304.7"/>
	<path class="st13" d="M181.8,333.5c0,0-0.8-8.8-1.3-11.3c-0.5-2.5-1.1-3.5-0.8-6.2c0.3-2.7,0-19.3,0-19.3l5.7,1.3l2.7,16.7
		C189.4,317.6,184.8,328.1,181.8,333.5z"/>
	<polygon class="st7" points="285.1,244.3 311.6,255.2 311.6,261.1 285.1,249.9 	"/>
	<path class="st19" d="M219,260.3l2.3,3.4c0.6,0.4-1.3,2.9-3.3,2.3"/>
	<path class="st5" d="M191.4,228.6c0,0-1.3-3,10-3c11.2,0,15.5,6.2,15.5,12.6c0,4.4-1.1,8.7-4.8,8.7c-3.2,0-5,2.1-5,5.1
		c0,3,0,5.9,0,5.9s-1.7-1.8-3.2-1c-1.5,0.8-2.1,2.6-1.3,4.7s4.1,4,4.1,4s0.6,8.4-9.3,8.4c-21.4,1.4-30-12.5-24.3-30.1"/>
	<path class="st5" d="M194.9,236.5c0,11.1-9.9,12-12,12c-6.6,0-12-5.4-12-12s5.4-12,12-12S194.9,229.8,194.9,236.5z"/>
	<path class="st14" d="M296.3,248.9c-1.8,2.1-6.8,3.3-9.5,5.2s-3.2,5.3-3.2,5.3s2.7-0.2,4.2,0.9c1.5,1.1,2.7,3.3,4,4
		c1.3,0.7,6,1.4,6,1.4s0-3.4,2.4-5.2s7.3-3,9.3-6.2"/>
	<path class="st8" d="M208,276.1"/>
	<polygon class="st10" points="213.8,186.7 213.8,217.3 254.1,233.6 254.1,202.8 	"/>
	<path class="st13" d="M233.4,297.6c0,0,25.9-9.3,28.2-11.5c2.2-2.2,15.1-15.2,17.7-18.6c2.6-3.4,9.1-2.8,8.6-6.4
		c-0.4-3.7-1.5-7.9-6-6.4c-4.5,1.6-2,3.8-3.9,6.8c-2,3-17.4,13.7-21.1,14.6s-20.8,8.1-24.2,8.9"/>
	<line class="st9" x1="283.6" y1="358.3" x2="322.3" y2="346.2"/>
	<line class="st9" x1="281" y1="353.9" x2="320.9" y2="341.7"/>
	<line class="st9" x1="274.1" y1="351" x2="313.9" y2="338.8"/>
	<polygon class="st11" points="211,188.2 211,218.8 251.2,235.1 251.2,204.2 	"/>
	<g>
		<path class="st12" d="M218.3,205.8l0.6-0.8c0.1-0.2,0.3-0.2,0.5,0c0,0,0.8,0.9,1.5,1.3l0-2.1c-1.1-0.9-2.7-2.3-2.7-3.9
			c0-1.3,0.9-2.1,2.7-1.7v-0.4c0-0.1,0.1-0.2,0.3-0.2l0.2,0.1c0.1,0,0.3,0.2,0.3,0.3v0.4c1.2,0.5,2.1,1.4,2.5,1.8
			c0.2,0.1,0.1,0.4,0.1,0.4l-0.8,0.8c-0.1,0.1-0.3,0.1-0.4,0c-0.1-0.1-0.8-0.8-1.4-1.3v1.9c1,0.8,2.8,2.3,2.8,4.1
			c0,1.4-1.1,2.2-2.8,1.7v1.4c0,0.1-0.1,0.2-0.3,0.1l-0.2-0.1c-0.1,0-0.3-0.2-0.3-0.3v-1.4c-1.5-0.6-2.3-1.5-2.5-1.9
			C218.2,206,218.2,206,218.3,205.8z M220.9,200.3c-0.4-0.1-0.7,0.1-0.7,0.4c0,0.4,0.2,0.8,0.7,1.3V200.3z M222.4,206.2
			c0-0.4-0.2-0.9-0.7-1.4v1.9C222.1,206.8,222.4,206.6,222.4,206.2z"/>
		<path class="st12" d="M228.9,207.1l-2.2-0.8c-0.2-0.1-0.4-0.4-0.4-0.6v-1.4c0-0.1,0.1-0.3,0.1-0.3l3.3-1.4l2.1,0.7
			c0.2,0.1,0.4,0.4,0.4,0.6v14.7c0,0.2-0.2,0.4-0.4,0.3l-2.5-0.9c-0.3-0.1-0.4-0.4-0.4-0.6V207.1z"/>
		<path class="st12" d="M234.4,212.4c0-5,2.1-7.3,5.9-6c3.7,1.3,5.9,5.1,5.9,10.1c0,5-2.1,7.3-5.9,6
			C236.5,221.1,234.4,217.4,234.4,212.4z M242.4,215.2c0-3-0.8-5-2.2-5.5c-1.4-0.5-2.2,0.9-2.2,3.9c0,3,0.8,5,2.2,5.5
			S242.4,218.2,242.4,215.2z"/>
	</g>
	<g>
		<polygon class="st12" points="270.4,347.8 303.7,337.8 303.8,302.2 269.7,312.2 		"/>
		<polygon class="st32" points="269.7,312.2 303.8,302.2 270.6,293.4 240.6,302.2 		"/>
		<polyline class="st33" points="269.7,312.1 240.6,302.2 240.6,336 270.4,347.8 		"/>
	</g>
	<g>
		<polygon class="st12" points="382.1,270.7 415.4,260.7 415.5,225.1 381.4,235.2 		"/>
		<polygon class="st32" points="381.4,235.2 415.5,225.1 382.3,216.4 352.3,225.1 		"/>
		<polyline class="st33" points="381.4,235 352.3,225.1 352.3,258.9 382.1,270.7 		"/>
	</g>
	<g>
		<polygon class="st12" points="489.5,190.1 522.8,180.1 522.9,144.5 488.8,154.6 		"/>
		<polygon class="st32" points="488.8,154.6 522.9,144.5 489.7,135.8 459.7,144.5 		"/>
		<polyline class="st33" points="488.8,154.4 459.7,144.5 459.7,178.3 489.5,190.1 		"/>
	</g>
	<path class="st34" d="M217.7,254.9c0,0,2.1,0.7,3.1,0c0.4-0.2,1,0.3,0.5,0.7c-0.7,0.8-3,1.9-3.8,2
		C217.4,257.6,217.3,255.7,217.7,254.9z"/>
	<path class="st35" d="M230.2,386.2c-4.2-4.8-8.8-10.1-10.1-10.4c-1.3-0.3,2.5-15.5,2.5-27c0-11.5-5.8-15.5-5.8-19.6
		c0-9,9.2-13.7,9.2-19.5c0-4.6-0.9-6.4-0.9-6.4s6.7-3,8.2-5.6c0,0,0.3-12-0.8-12.6c-0.9-0.5-8.8-6.3-15.5-1.1l0,0l-6.7-3.2
		c0,0-3.7,6.5-12.5,5.3c-8.8-1.1-8.7-5.6-8.7-5.6s-7.1-2-9.2,1.7c-2.1,3.7-1.3,8.2-1.3,11.5c0,3.4,3.7,4.1,3.7,4.1s0.4,7.8,4.4,13.8
		c4,6-11,22.4-11,38.5c0,12.4,3,15,3,22.3c0,7.3-7.2,18-13.2,24.5c0,0,12.1-4.8,20.2-2.8c8.1,2,22.8,13.4,24.9,15.5
		c1.7-2,3.1-4.2,10.2-7.6c7.1-3.4,14.4-6.9,19.4-11.7C240.4,390.2,234.4,390.9,230.2,386.2z"/>
	<path class="st28" d="M225.1,303.2c0,0-13.2-2.9-12.5,19.9c0,12.3-6.3,19.5-6.6,29.1c-0.2,9.6,1.9,33.6,1.9,33.6s4.2-9.8,12.1-10
		l0,0c0,0,2.5-17,2.5-27c0-13.2-5.8-14-5.8-19.9c0-9,9.5-10.5,9.5-20.8C226.3,308.1,226.1,305.3,225.1,303.2z"/>
	<path class="st36" d="M217.1,283.9c0,0-4,3.7-3.5,10.1c0.5,6.5,11.6,9.2,11.6,9.2s-12.6-4.8-12.6,21.3c0,8.4-6.4,18.6-6.4,27.6
		s1.9,33.6,1.9,33.6s-10.5-7.1-18.7-7.1c0,0-5.5-24.9-2.6-38.9c6.4-31.6,6.7-19.8,7-54.8c0,0,10.8,4.2,16.7-4.3L217.1,283.9z"/>
	<g>
		<ellipse class="st4" cx="193.3" cy="292.6" rx="1.6" ry="1.9"/>
		<ellipse class="st4" cx="193.3" cy="300.4" rx="1.6" ry="1.9"/>
		<ellipse class="st4" cx="193.3" cy="308.1" rx="1.6" ry="1.9"/>
		<ellipse class="st4" cx="193.3" cy="315.8" rx="1.6" ry="1.9"/>
	</g>
	<path class="st36" d="M208,385.8c0,0-10.8-7.6-18.7-7.1s-13.4,3.7-13.4,3.7s-4,7.9-10.2,14.4c0,0,6.6-3.3,14-3.2
		c13.2,0,31.1,15.9,31.1,15.9s4.2-5.3,10.2-7.6c6-2.3,17.3-8.2,19.4-11.7c0,0-7.9-0.1-12.3-6.4c-4.3-6.3-8.1-8.1-8.1-8.1
		S213.3,375.2,208,385.8z"/>
	<path class="st28" d="M189.3,378.7c0,0,10.9-0.2,18.7,7.1c0,0,3.4,3.2,3.3,9.4c-0.2,6.2-0.4,14.3-0.4,14.3s-17.1-14.5-26.9-15.4
		C183.9,394.1,189.9,390.8,189.3,378.7z"/>
	<path class="st27" d="M208,385.8c0,0,4-9.8,12.1-10c0,0,1-0.2,3.8,3c2.8,3.1,5.4,4.3,8.5,6.6c3.1,2.2,8,4.9,8,4.9s-5.6,7.4-11.6,9
		c-6,1.5-12,3.6-18.1,10.3c0,0,0.8-8.8,0.4-12.8S209.7,386.7,208,385.8z"/>
	<path class="st37" d="M179.4,245.4c0,0,15-0.7,12.4-17.1c0,0,8.7,5.7,7.1,13.5c-1.7,7.8-8.5,7.9-12.1,7.6S179.4,245.4,179.4,245.4z
		"/>
	<polygon class="st3" points="285.1,249.9 290.6,246.6 285.1,244.3 	"/>
	<polygon class="st3" points="394.6,171.9 400.1,168.5 394.6,166.2 	"/>
	<polygon class="st3" points="502.3,91.2 507.8,87.8 502.3,85.6 	"/>
	<path class="st38" d="M427.1,91.9c-0.5,2.9,2.4,10.2,2.4,10.2s-1.8,2.4-2,1c-0.4-3-3.2-4.4-5.3-2.3c-2.5,2.5-1,6.5,2.5,8.1
		c1.9,0.8,1.1,5.8-2.3,6.4s-12.9,0.3-16.5-4.1c-3.6-4.4-10.1-21.4-1.8-28.5c8.3-7.2,12.4-8.6,17.7-8.6c18.9,0,20.1,7,19.3,12.4
		C440.5,89.8,427.6,89,427.1,91.9z"/>
	<path class="st14" d="M287.8,260.4c1.5,1.1,2.2,2.8,4,4c2.5,1.6,6,1.4,6,1.4"/>
	<path class="st26" d="M298.4,257.3l-0.3-0.6c-0.1-0.1,0-0.3,0.2-0.3c0,0,0.8-0.2,1.3-0.4l-1.3-0.8c-0.9,0.4-2.3,0.8-3.3,0.2
		c-0.8-0.5-0.9-1.3,0-2.2l-0.3-0.1c-0.1-0.1-0.1-0.1,0-0.2l0.1-0.1c0.1-0.1,0.2-0.1,0.3,0l0.3,0.2c0.7-0.5,1.6-0.7,2-0.8
		c0.1,0,0.3,0.1,0.3,0.1l0.2,0.8c0,0.1,0,0.2-0.2,0.2c-0.1,0-0.8,0.2-1.3,0.4l1.1,0.7c0.8-0.3,2.3-0.9,3.4-0.2
		c0.8,0.5,0.9,1.4,0,2.3l0.8,0.5c0.1,0,0.1,0.1,0,0.2l-0.1,0.1c-0.1,0.1-0.2,0.1-0.3,0l-0.8-0.5c-0.9,0.7-1.7,0.8-2,0.8
		C298.5,257.4,298.5,257.5,298.4,257.3z M296,253.8c-0.2,0.2-0.2,0.5,0,0.6c0.2,0.1,0.5,0.2,1,0L296,253.8z M300.1,255
		c-0.2-0.1-0.6-0.2-1.1-0.1l1.2,0.7C300.3,255.4,300.3,255.2,300.1,255z"/>
	<path class="st26" d="M515.5,98.6l-0.3-0.6c-0.1-0.1,0-0.3,0.2-0.3c0,0,0.8-0.2,1.3-0.4l-1.3-0.8c-0.9,0.4-2.3,0.8-3.3,0.2
		c-0.8-0.5-0.9-1.3,0-2.2l-0.3-0.1c-0.1-0.1-0.1-0.1,0-0.2L512,94c0.1-0.1,0.2-0.1,0.3,0l0.3,0.2c0.7-0.5,1.6-0.7,2-0.8
		c0.1,0,0.3,0.1,0.3,0.1l0.2,0.8c0,0.1,0,0.2-0.2,0.2c-0.1,0-0.8,0.2-1.3,0.4l1.1,0.7c0.8-0.3,2.3-0.9,3.4-0.2
		c0.8,0.5,0.9,1.4,0,2.3L519,98c0.1,0,0.1,0.1,0,0.2l-0.1,0.1c-0.1,0.1-0.2,0.1-0.3,0l-0.8-0.5c-0.9,0.7-1.7,0.8-2,0.8
		C515.6,98.7,515.5,98.7,515.5,98.6z M513.1,95.1c-0.2,0.2-0.2,0.5,0,0.6c0.2,0.1,0.5,0.2,1,0L513.1,95.1z M517.1,96.3
		c-0.2-0.1-0.6-0.2-1.1-0.1l1.2,0.7C517.4,96.7,517.4,96.4,517.1,96.3z"/>
	<path class="st37" d="M208,226.5c5.1,0.7,8.9,5.3,8.9,11.7c0,4.4-1.1,8.7-4.8,8.7c-3.2,0-5,2.1-5,5.1c0,3,0,5.9,0,5.9
		s-1.7-1.8-3.2-1c-1.5,0.8-2.1,2.6-1.3,4.7s4.1,4,4.1,4c0.9,8.5-12.6,13.2-27,4.8C195.6,262.6,210.1,241.7,208,226.5z"/>
	<path class="st3" d="M227.8,453.3"/>
	<path class="st39" d="M427.1,91.9c-0.5,2.9,2.4,10.2,2.4,10.2s-1.8,2.4-2,1c-0.4-3-3.2-4.4-5.3-2.3c-2.5,2.5-1,6.5,2.5,8.1
		c1.9,0.8,1.1,5.8-2.3,6.4s-12.9,0.3-16.5-4.1c22.3-25,20.9-37,20.9-37c13.4,0.9,15.1,6.8,14.3,12.2C440.5,89.8,427.6,89,427.1,91.9
		z"/>
	<path class="st27" d="M202.6,439.6c0,0,1.9,0.5,3.9,0.4c1.3-0.1,2.2-1.1,3.1-0.4c2.3,1.8,5.7,4,8.7,3.3s7.1-0.5,7.5,1.6
		s0,3.1,0,3.1s-4.8,5.2-9.6,5.4s-5.6-1.9-5.6-1.9l-0.1,3.5l-4,2.3l-4.6-1.1v-4.4C201.9,451.4,199.2,443.3,202.6,439.6z"/>
	<path class="st28" d="M202.6,439.6l4,0.4c0,0-1.2,8.3,0,12.1l0,5l-4.7-1.1v-4.4C201.9,451.5,198.8,443.5,202.6,439.6z"/>
	<g>
		<polygon class="st40" points="293.9,333.4 282.5,336.4 282.5,317.4 293.9,314.3 		"/>
		<g>
			<path class="st41" d="M293.9,333.4l-11.4,3.1v-19l11.4-3.1V333.4z M293.9,312.4l-11.4,3.1c-1.1,0.3-1.9,1.4-1.9,2.4v19
				c0,1.1,0.9,1.7,1.9,1.4l11.4-3.1c1.1-0.3,1.9-1.4,1.9-2.4v-19C295.8,312.7,295,312.1,293.9,312.4z"/>
			<path class="st41" d="M289.8,331.4c0,1.8-2.7,2.5-2.7,0.7C287.1,330.3,289.8,329.6,289.8,331.4"/>
		</g>
	</g>
	<g>
		<polygon class="st40" points="405.2,255.9 393.8,259 393.8,239.9 405.2,236.9 		"/>
		<g>
			<path class="st41" d="M405.2,255.9l-11.4,3.1v-19l11.4-3.1V255.9z M405.2,235l-11.4,3.1c-1.1,0.3-1.9,1.4-1.9,2.4v19
				c0,1.1,0.9,1.7,1.9,1.4l11.4-3.1c1.1-0.3,1.9-1.4,1.9-2.4v-19C407.2,235.3,406.3,234.7,405.2,235z"/>
			<path class="st41" d="M401.2,254c0,1.8-2.7,2.5-2.7,0.7C398.5,252.9,401.2,252.2,401.2,254"/>
		</g>
	</g>
	<g>
		<polygon class="st40" points="512.4,175.8 501,178.9 501,159.8 512.4,156.8 		"/>
		<g>
			<path class="st41" d="M512.4,175.8l-11.4,3.1v-19l11.4-3.1V175.8z M512.4,154.8l-11.4,3.1c-1.1,0.3-1.9,1.4-1.9,2.4v19
				c0,1.1,0.9,1.7,1.9,1.4l11.4-3.1c1.1-0.3,1.9-1.4,1.9-2.4v-19C514.3,155.2,513.5,154.6,512.4,154.8z"/>
			<path class="st41" d="M508.3,173.8c0,1.8-2.7,2.5-2.7,0.7S508.3,172.1,508.3,173.8"/>
		</g>
	</g>
</g>
</svg>
