<?xml version="1.0" encoding="utf-8"?>
<!-- Generator: Adobe Illustrator 19.2.1, SVG Export Plug-In . SVG Version: 6.00 Build 0)  -->
<svg version="1.1" id="Layer_1" xmlns="http://www.w3.org/2000/svg" xmlns:xlink="http://www.w3.org/1999/xlink" x="0px" y="0px"
	 viewBox="0 0 718.6 512" style="enable-background:new 0 0 718.6 512;" xml:space="preserve">
<style type="text/css">
	.st0{fill:#B84C48;}
	.st1{fill:#F5716B;}
	.st2{fill:#A4AFB5;}
	.st3{fill:#3D5966;}
	.st4{fill:#F1B538;}
	.st5{fill:#F1A833;}
	.st6{fill:#BDBDBD;}
	.st7{fill:#334A55;}
	.st8{fill:#664E1D;}
	.st9{fill:#F0B445;}
	.st10{fill:#7A5C23;}
	.st11{fill:#F1BA52;}
	.st12{fill:#8D6A29;}
	.st13{fill:#8A8E8E;}
	.st14{fill:#707070;}
	.st15{fill:#555555;}
	.st16{fill:#616161;}
	.st17{fill:#903B38;}
	.st18{fill:#7C3231;}
	.st19{fill:#F1BD44;}
	.st20{fill:#9FA7A8;}
	.st21{fill:#476776;}
	.st22{fill:#F9E5C0;}
	.st23{fill:#333333;}
	.st24{fill:#F6D596;}
	.st25{fill:#F3C56B;}
	.st26{fill:#F79E9B;}
	.st27{fill:none;stroke:#B84C47;stroke-linecap:round;stroke-miterlimit:10;}
	.st28{fill:#F4CA7A;}
	.st29{fill:none;stroke:#7A5C23;stroke-linecap:round;stroke-miterlimit:10;}
	.st30{fill:#FFFFFF;}
	.st31{fill:none;stroke:#FFFFFF;stroke-width:2;stroke-linecap:round;stroke-linejoin:round;stroke-miterlimit:10;}
	.st32{fill:#222222;}
</style>
<g>
	<path class="st0" d="M718.6,359.5c0,95.3-160.9,152.5-359.3,152.5S0,453.7,0,359.5c0-82,160.9-148.5,359.3-148.5
		S718.6,277.4,718.6,359.5z"/>
	<ellipse class="st1" cx="359.3" cy="350.1" rx="359.3" ry="148.5"/>
	<polygon class="st2" points="190.2,326.2 190.2,239.3 125.6,209.8 125.6,298 125.6,307.6 207,345.8 	"/>
	<path class="st3" d="M170.1,248.7c0,0-16.6,8.1-33.5-17.1C135.5,225.9,153.4,200.3,170.1,248.7z"/>
	<polygon class="st4" points="136.8,227.4 143.5,299 154.5,301.7 154.5,222.6 	"/>
	<path class="st5" d="M150,226.5c0,0,0.9,65.6,1.2,70.6c0,0-15.5,30.8-9.2,28s18-13.2,17-17.2s9.4-75.3,9.4-75.3"/>
	<polygon class="st6" points="267.5,207.5 198.8,177.4 125.6,209.8 190.2,239.3 	"/>
	<path class="st3" d="M217.9,179.1c0,0,11.5,14.7,11.5,28.3s-33.2,17.9-44.7,24.4s-14.5,16.8-14.5,16.8c1,0.1-4.3-22.4-24.2-22.6
		c-10,0-9.2,5.5-9.2,5.5s-3.3-12.3,0.2-15.9s37.5-24.1,37.5-24.1l5.2-9.2"/>
	<path class="st7" d="M217.8,179.5c-2,1.3-3.2,2.8-14.8,4.5c23.2,29.9-42.6,37.5-41.1,48.7c6.8,6.2,8.2,16,8.2,16s3-10.3,14.5-16.8
		s44.7-10.8,44.7-24.4s-11.5-28.3-11.5-28.3"/>
	<polygon class="st2" points="504.8,336.7 504.8,249.8 440.1,220.2 440.1,308.5 440.1,318 521.6,356.3 	"/>
	<path class="st8" d="M473.3,319.1c0,0,6.7-0.1,6.7,5.7s-4.3,8.1-5.2,14.9c-0.9,6.8-2.8,11.7-11.1,12c-8.3,0.3-13.3-2.5-13.3-6.5
		s10.6-5.5,10.5-7.5c-0.1-2,1-17.5,3.3-17.9C466.3,319.3,473.3,319.1,473.3,319.1z"/>
	<path class="st9" d="M474.5,296l-0.1,25.2c-1.8,5.7-8.8,5.7-9.8-1.5l-2.7-16.3"/>
	<path class="st5" d="M465.8,301.4l2.9,22.8c0,0,0.4,1.1,1.4,1.1c3.2,0,4.3-4,4.3-4l0.1-23.6L465.8,301.4z"/>
	<path class="st10" d="M484.9,327c0,0,6.7-0.1,6.7,5.7c0,5.8-4.3,8.1-5.2,14.9c-0.9,6.8-2.8,11.7-11.1,12
		c-8.3,0.3-13.3-2.5-13.3-6.5s10.6-5.5,10.5-7.5s1-17.5,3.3-17.9C477.9,327.2,484.9,327,484.9,327z"/>
	<path class="st11" d="M472.3,309.1l2.7,16.3c1,7.2,8,7.2,9.8,1.5l1.4-14.9"/>
	<path class="st5" d="M478.5,307l0.9,24.1c2.5,0.4,4.2-1.5,5.7-4.2l2.1-23.6L478.5,307z"/>
	<path class="st12" d="M169.9,98.4c0,0,5-9.2,5-17.8s-5.5-26,3.8-34s21-11.2,35.2-4.5s15,22.3,15,35.3s10.5,23.1,10.5,23.1
		s-17,14.4-34.8,14.4S169.9,98.4,169.9,98.4z"/>
	<polygon class="st13" points="267.5,293 286.2,310.8 207,345.8 190.2,326.2 	"/>
	<g>
		<g>
			<polygon class="st14" points="202.2,324.6 204.9,328.2 209.2,326.5 206.3,322.9 			"/>
			<polygon class="st15" points="204.9,328.2 204.8,328.8 208.9,327.2 209.2,326.5 			"/>
			<polygon class="st16" points="202.2,324.6 204.9,328.2 204.8,328.8 202.1,325.3 			"/>
		</g>
		<g>
			<polygon class="st14" points="206.2,329.9 208.9,333.5 213.2,331.8 210.3,328.2 			"/>
			<polygon class="st15" points="208.9,333.5 208.8,334.1 213,332.5 213.2,331.8 			"/>
			<polygon class="st16" points="206.2,329.9 208.9,333.5 208.8,334.1 206.1,330.6 			"/>
		</g>
		<g>
			<polygon class="st14" points="210.3,335.3 213.1,338.9 217.3,337.2 214.5,333.6 			"/>
			<polygon class="st15" points="213.1,338.9 213,339.5 217.1,337.8 217.3,337.2 			"/>
			<polygon class="st16" points="210.3,335.3 213.1,338.9 213,339.5 210.2,336 			"/>
		</g>
		<g>
			<polygon class="st14" points="208.4,321.9 211.2,325.5 215.4,323.8 212.6,320.2 			"/>
			<polygon class="st15" points="211.2,325.5 211.1,326.1 215.2,324.5 215.4,323.8 			"/>
			<polygon class="st16" points="208.4,321.9 211.2,325.5 211.1,326.1 208.3,322.6 			"/>
		</g>
		<g>
			<polygon class="st14" points="212.5,327.2 215.2,330.8 219.5,329.1 216.6,325.5 			"/>
			<polygon class="st15" points="215.2,330.8 215.1,331.4 219.2,329.8 219.5,329.1 			"/>
			<polygon class="st16" points="212.5,327.2 215.2,330.8 215.1,331.4 212.4,327.9 			"/>
		</g>
		<g>
			<polygon class="st14" points="216.6,332.6 219.3,336.2 223.6,334.5 220.7,330.9 			"/>
			<polygon class="st15" points="219.3,336.2 219.2,336.8 223.4,335.1 223.6,334.5 			"/>
			<polygon class="st16" points="216.6,332.6 219.3,336.2 219.2,336.8 216.5,333.3 			"/>
		</g>
		<g>
			<polygon class="st14" points="214.7,319.2 217.4,322.8 221.7,321.1 218.8,317.5 			"/>
			<polygon class="st15" points="217.4,322.8 217.3,323.4 221.5,321.8 221.7,321.1 			"/>
			<polygon class="st16" points="214.7,319.2 217.4,322.8 217.3,323.4 214.6,319.9 			"/>
		</g>
		<g>
			<polygon class="st14" points="218.7,324.5 221.5,328.1 225.7,326.4 222.9,322.8 			"/>
			<polygon class="st15" points="221.5,328.1 221.4,328.7 225.5,327 225.7,326.4 			"/>
			<polygon class="st16" points="218.7,324.5 221.5,328.1 221.4,328.7 218.6,325.2 			"/>
		</g>
		<g>
			<polygon class="st14" points="222.9,329.9 225.6,333.4 229.9,331.8 227,328.2 			"/>
			<polygon class="st15" points="225.6,333.4 225.5,334.1 229.6,332.4 229.9,331.8 			"/>
			<polygon class="st16" points="222.9,329.9 225.6,333.4 225.5,334.1 222.8,330.6 			"/>
		</g>
		<g>
			<polygon class="st14" points="221,316.5 223.7,320.1 228,318.4 225.1,314.8 			"/>
			<polygon class="st15" points="223.7,320.1 223.6,320.7 227.7,319 228,318.4 			"/>
			<polygon class="st16" points="221,316.5 223.7,320.1 223.6,320.7 220.9,317.2 			"/>
		</g>
		<g>
			<polygon class="st14" points="225,321.8 227.7,325.4 232,323.7 229.1,320.1 			"/>
			<polygon class="st15" points="227.7,325.4 227.6,326 231.8,324.3 232,323.7 			"/>
			<polygon class="st16" points="225,321.8 227.7,325.4 227.6,326 224.9,322.5 			"/>
		</g>
		<g>
			<polygon class="st14" points="229.1,327.2 231.9,330.7 236.1,329.1 233.3,325.5 			"/>
			<polygon class="st15" points="231.9,330.7 231.8,331.4 235.9,329.7 236.1,329.1 			"/>
			<polygon class="st16" points="229.1,327.2 231.9,330.7 231.8,331.4 229,327.9 			"/>
		</g>
		<g>
			<polygon class="st14" points="227.2,313.8 230,317.4 234.2,315.7 231.3,312.1 			"/>
			<polygon class="st15" points="230,317.4 229.9,318 234,316.3 234.2,315.7 			"/>
			<polygon class="st16" points="227.2,313.8 230,317.4 229.9,318 227.1,314.5 			"/>
		</g>
		<g>
			<polygon class="st14" points="231.3,319.1 234,322.6 238.3,321 235.4,317.4 			"/>
			<polygon class="st15" points="234,322.6 233.9,323.3 238,321.6 238.3,321 			"/>
			<polygon class="st16" points="231.3,319.1 234,322.6 233.9,323.3 231.2,319.8 			"/>
		</g>
		<g>
			<polygon class="st14" points="235.4,324.5 238.1,328 242.4,326.3 239.5,322.8 			"/>
			<polygon class="st15" points="238.1,328 238,328.7 242.2,327 242.4,326.3 			"/>
			<polygon class="st16" points="235.4,324.5 238.1,328 238,328.7 235.3,325.2 			"/>
		</g>
		<g>
			<polygon class="st14" points="233.5,311.1 236.2,314.7 240.5,313 237.6,309.4 			"/>
			<polygon class="st15" points="236.2,314.7 236.1,315.3 240.3,313.6 240.5,313 			"/>
			<polygon class="st16" points="233.5,311.1 236.2,314.7 236.1,315.3 233.4,311.8 			"/>
		</g>
		<g>
			<polygon class="st14" points="237.5,316.4 240.3,319.9 244.5,318.3 241.6,314.7 			"/>
			<polygon class="st15" points="240.3,319.9 240.2,320.6 244.3,318.9 244.5,318.3 			"/>
			<polygon class="st16" points="237.5,316.4 240.3,319.9 240.2,320.6 237.4,317.1 			"/>
		</g>
		<g>
			<polygon class="st14" points="241.7,321.8 244.4,325.3 248.6,323.6 245.8,320 			"/>
			<polygon class="st15" points="244.4,325.3 244.3,326 248.4,324.3 248.6,323.6 			"/>
			<polygon class="st16" points="241.7,321.8 244.4,325.3 244.3,326 241.6,322.5 			"/>
		</g>
		<g>
			<polygon class="st14" points="239.8,308.4 242.5,311.9 246.7,310.3 243.9,306.7 			"/>
			<polygon class="st15" points="242.5,311.9 242.4,312.6 246.5,310.9 246.7,310.3 			"/>
			<polygon class="st16" points="239.8,308.4 242.5,311.9 242.4,312.6 239.7,309.1 			"/>
		</g>
		<g>
			<polygon class="st14" points="243.8,313.7 246.5,317.2 250.8,315.5 247.9,312 			"/>
			<polygon class="st15" points="246.5,317.2 246.4,317.9 250.6,316.2 250.8,315.5 			"/>
			<polygon class="st16" points="243.8,313.7 246.5,317.2 246.4,317.9 243.7,314.4 			"/>
		</g>
		<g>
			<polygon class="st14" points="247.9,319 250.7,322.6 254.9,320.9 252,317.3 			"/>
			<polygon class="st15" points="250.7,322.6 250.6,323.2 254.7,321.6 254.9,320.9 			"/>
			<polygon class="st16" points="247.9,319 250.7,322.6 250.6,323.2 247.8,319.7 			"/>
		</g>
		<g>
			<polygon class="st14" points="246,305.7 248.8,309.2 253,307.5 250.1,304 			"/>
			<polygon class="st15" points="248.8,309.2 248.7,309.9 252.8,308.2 253,307.5 			"/>
			<polygon class="st16" points="246,305.7 248.8,309.2 248.7,309.9 245.9,306.4 			"/>
		</g>
		<g>
			<polygon class="st14" points="250.1,311 252.8,314.5 257,312.8 254.2,309.2 			"/>
			<polygon class="st15" points="252.8,314.5 252.7,315.2 256.8,313.5 257,312.8 			"/>
			<polygon class="st16" points="250.1,311 252.8,314.5 252.7,315.2 250,311.7 			"/>
		</g>
		<g>
			<polygon class="st14" points="254.2,316.3 256.9,319.9 261.2,318.2 258.3,314.6 			"/>
			<polygon class="st15" points="256.9,319.9 256.8,320.5 261,318.9 261.2,318.2 			"/>
			<polygon class="st16" points="254.2,316.3 256.9,319.9 256.8,320.5 254.1,317 			"/>
		</g>
		<g>
			<polygon class="st14" points="252.3,303 255,306.5 259.3,304.8 256.4,301.3 			"/>
			<polygon class="st15" points="255,306.5 254.9,307.2 259.1,305.5 259.3,304.8 			"/>
			<polygon class="st16" points="252.3,303 255,306.5 254.9,307.2 252.2,303.7 			"/>
		</g>
		<g>
			<polygon class="st14" points="256.3,308.2 259.1,311.8 263.3,310.1 260.4,306.5 			"/>
			<polygon class="st15" points="259.1,311.8 259,312.4 263.1,310.8 263.3,310.1 			"/>
			<polygon class="st16" points="256.3,308.2 259.1,311.8 259,312.4 256.2,308.9 			"/>
		</g>
		<g>
			<polygon class="st14" points="260.5,313.6 263.2,317.2 267.4,315.5 264.6,311.9 			"/>
			<polygon class="st15" points="263.2,317.2 263.1,317.8 267.2,316.2 267.4,315.5 			"/>
			<polygon class="st16" points="260.5,313.6 263.2,317.2 263.1,317.8 260.4,314.3 			"/>
		</g>
		<g>
			<polygon class="st14" points="258.6,300.2 261.3,303.8 265.5,302.1 262.7,298.5 			"/>
			<polygon class="st15" points="261.3,303.8 261.2,304.5 265.3,302.8 265.5,302.1 			"/>
			<polygon class="st16" points="258.6,300.2 261.3,303.8 261.2,304.5 258.5,301 			"/>
		</g>
		<g>
			<polygon class="st14" points="262.6,305.5 265.3,309.1 269.6,307.4 266.7,303.8 			"/>
			<polygon class="st15" points="265.3,309.1 265.2,309.7 269.4,308.1 269.6,307.4 			"/>
			<polygon class="st16" points="262.6,305.5 265.3,309.1 265.2,309.7 262.5,306.2 			"/>
		</g>
		<g>
			<polygon class="st14" points="266.7,310.9 269.5,314.5 273.7,312.8 270.8,309.2 			"/>
			<polygon class="st15" points="269.5,314.5 269.4,315.1 273.5,313.5 273.7,312.8 			"/>
			<polygon class="st16" points="266.7,310.9 269.5,314.5 269.4,315.1 266.6,311.6 			"/>
		</g>
	</g>
	<path class="st17" d="M497.2,115.9l2.2-25.2l0.1-19.2c0,0-2.9-0.3-4.6-3.3c-1.7-3,6.4-18.7,6.4-18.7c3.8-4.3,20.6-9.2,30.2-8
		c10.6,1.3,16.3,12.5,19.7,31.4c3.3,18.9,13,95.3,13,95.3s-18.5,5.3-34.8,5.3s-36.2-4.7-36.2-4.7L497.2,115.9z"/>
	<path class="st18" d="M513.9,70.4c0,0,1.5-16,4.5-20.7s5.9-7.5,13.1-8.3s14.3,5.5,17,18.4c2.7,13,15.7,108.2,15.7,108.2
		s-31.7,8.5-47.7,7.4"/>
	<polygon class="st6" points="432.6,300.6 357.1,267.6 276.6,303.1 347.6,335.6 	"/>
	<polygon class="st2" points="347.6,431.1 347.6,335.6 276.6,303.1 276.6,400.1 276.6,410.6 366.1,452.6 	"/>
	<polygon class="st6" points="582.1,217.8 513.4,187.8 440.1,220.1 504.8,249.7 	"/>
	<path class="st3" d="M469.1,300.4c0,0-6.5,3.5-8,3c-1.5-0.5-18-72.2-17.8-76.2s51.5-36.8,51.5-36.8l7.4-4.4l33,6.8l-52.9,39.1
		L469.1,300.4"/>
	<polyline class="st19" points="513.9,110.4 513.9,103.8 524.8,100.5 525.6,108.6 519.6,122.9 	"/>
	<polygon class="st4" points="168.5,142.8 163.8,182.5 168.5,198.5 174.1,198.1 176.3,166 177.4,145.8 	"/>
	<path class="st10" d="M169.9,98.4c0,0,5-9.2,5-17.8s0.5-24.7,9.8-32.7s20-9.9,29.2-5.8c14.2,6.8,15,22.3,15,35.3
		s10.5,23.1,10.5,23.1s-17,14.4-34.8,14.4S169.9,98.4,169.9,98.4z"/>
	<polygon class="st20" points="190.2,239.3 267.5,207.5 267.5,293 190.2,326.2 	"/>
	<polygon class="st15" points="199.3,245.8 259.5,220.6 259.5,283.4 199.3,309.6 	"/>
	<polygon class="st20" points="347.6,335.6 432.6,300.6 432.6,394.6 347.6,431.1 	"/>
	<polygon class="st15" points="357.6,342.8 423.8,315.1 423.8,384.1 357.6,412.9 	"/>
	<polygon class="st13" points="432.6,394.6 449.1,416.1 366.1,452.6 347.6,431.1 	"/>
	<polygon class="st20" points="504.8,249.7 582.1,217.8 582.1,303.4 504.8,336.6 	"/>
	<polygon class="st15" points="513.9,256.2 574.1,231 574.1,293.8 513.9,320 	"/>
	<polygon class="st13" points="582.1,303.4 598.3,323.5 521.6,356.2 504.8,336.6 	"/>
	<path class="st21" d="M383.7,279.3c0,0,11.3,12.6,9.3,22.3s-51,31.2-69.8,34l-2-8.5c0,0,14,86.5,12,85.8s-33,3-37.8,0l-1.5-3.3
		c-6.7,0-6.4-2-6.4-2c-3.1-4-14.3-81.7-13.6-87.2s59.8-34.8,61.3-35.5c7.7-3.8,47-5.6,47-5.6"/>
	<path class="st3" d="M335.5,284.9c-1.6,0.5-60.6,29.9-61.3,35.5s10.5,83.2,13.6,87.2c0,0-0.3,2,6.4,2"/>
	<path class="st8" d="M292.1,408.6c0,0-7.3,8.8-13.7,11.4c-6.3,2.7-10,5-7.7,10c2.3,5,16.3,7.7,21.3,4c5-3.7,9.3-9.1,15.3-9.2
		s17.7-7.3,10.5-17.4"/>
	<path class="st22" d="M499.1,129.9c0,0-4.8,39-4.2,55.5c0,0,4.8,12.2,20,9.2c15.2-3,18.8-8.8,18.8-8.8l4.3-50.1"/>
	<path class="st3" d="M504.8,210.8c-1.4,0.6-42.6,17.1-43.6,20.2s7.8,74.9,9,76.7s11.8,6,17.2,4.2l3.8-65c0,0,53.3-20.1,52.3-26.8
		c-1-6.7-6.8-30.4-8.3-32.3"/>
	<path class="st22" d="M192.8,112.5c0,0-17.7,1-21,5c-3.3,4-5.5,26-5.5,26s8.5,1.5,8.5,6.8c0,4.5,2.5,28.2,4.7,32.2
		c0,0,27.9,5,38.3-3c0,0,6.3-27.5,5.3-32.3l11-4.1c0,0-2.2-23.3-4.8-25.3c-2.6-2-24.6-4.7-26.6-5.3c-2-0.7-7.3,11.5-8.3,16.4
		C193.5,133.8,192.8,112.5,192.8,112.5z"/>
	<path class="st4" d="M177.9,68.1c0,0-2,17.5,2.2,27c4.3,9.5,13,9.2,16.4,9s17.9-3,15.6-13.8s-0.2-6.8,1.2-7s4-2,3.8-5.2
		s-2.2-10.5-7.8-4.5c0,0-1.5,0.8-6,0.8s-20.8-9.3-20.8-9.3L177.9,68.1z"/>
	<polyline class="st4" points="192.8,100.1 192.8,108.4 193.8,131.1 201.8,113.4 200.2,100.1 	"/>
	<path class="st4" d="M499.5,71.5c-0.9,2.6-3,9.1-2,14.2c1,5.1,8.4,18.1,16.4,18.1c7.9,0,22.8-8,22.8-20.7c0,0,7.3-5.3,7.3-11.7
		c0-6.3-7.3-2.3-7.3-2.3l-4.2,1.3C532.5,70.5,513.8,72.8,499.5,71.5z"/>
	<path class="st22" d="M496.1,148.2c-2.8-0.9-8.8-5.6-8.8-5.6s4-20,6.8-22.5s19.7-9.8,19.7-9.8s1.5,3.8,5.8,3.5s6-5.2,6-5.2
		s20-1.5,23.2,4s6,30,6.2,31.2s-18,8.5-21.5,7.2c0,0-2.2-6.6-1.2-11.5"/>
	<path class="st10" d="M303.1,414c0,0-7.3,8.8-13.7,11.4c-6.3,2.7-10,5-7.7,10c2.3,5,16.3,7.7,21.3,4c5-3.7,9.3-9.1,15.3-9.2
		s17.7-7.3,10.5-17.4"/>
	<path class="st3" d="M383.8,279.3c0,0,11.3,12.6,9.3,22.3s-51,31.2-69.8,34l-2-8.5c0,0,14,86.5,12,85.8s-33,3-37.8,0
		c0,0-10.5-82.4-7.2-87.5c3.2-5,53.5-30.3,53.5-30.3"/>
	<path class="st23" d="M574.1,231v62.8L513.9,320c0,0,37.2-19.3,47.2-35.9C571,267.4,574.1,231,574.1,231z"/>
	<path class="st16" d="M513.9,320v-62.8l60.2-26.2c0,0-37.2,19.3-47.2,35.9S513.9,320,513.9,320z"/>
	<path class="st16" d="M357.8,406.5v-62.8l60.2-26.2c0,0-37.2,19.3-47.2,35.9S357.8,406.5,357.8,406.5z"/>
	<path class="st16" d="M199.3,309.6v-62.8l60.2-26.2c0,0-37.2,19.3-47.2,35.9C202.3,273.2,199.3,309.6,199.3,309.6z"/>
	<path class="st23" d="M423.5,321.7v62.8l-60.2,26.2c0,0,37.2-19.3,47.2-35.9S423.5,321.7,423.5,321.7z"/>
	<path class="st23" d="M259.5,220.6v62.8l-60.2,26.2c0,0,37.2-19.3,47.2-35.9C256.4,257,259.5,220.6,259.5,220.6z"/>
	<path class="st24" d="M508.9,195.1c12.6,0.7,20.6-6.7,22.5-9.2l3.3-61.8C530.4,142,524.5,168.1,508.9,195.1z"/>
	<path class="st24" d="M548.9,112.6l-7.1,37.3c0,0,11.7-3.2,13.4-6.1C555.1,143.9,552,118.3,548.9,112.6z"/>
	<path class="st8" d="M155.3,302.5c0,5.8-2.3,6.1-3.2,12.9c-0.9,6.8-2.8,11.7-11.1,12c-8.3,0.3-13.3-2.5-13.3-6.5s10.6-5.5,10.5-7.5
		c-0.1-2,1-17.5,3.3-17.9C143.6,295.1,155.3,296.7,155.3,302.5z"/>
	<path class="st10" d="M155.4,297.1c0,0,6.7-0.1,6.7,5.7s-4.3,8.1-5.2,14.9c-0.9,6.8-2.8,11.7-11.1,12c-8.3,0.3-13.3-2.5-13.3-6.5
		s10.6-5.5,10.5-7.5s1-17.5,3.3-17.9C148.4,297.3,155.4,297.1,155.4,297.1z"/>
	<path class="st5" d="M513.9,103.8c0,0,15.7-9.2,11.9-32.7l6.7-0.7l4.2-1.3c0,0,7.3-4.2,7.3,2.3s-7.3,11.7-7.3,11.7
		s1,10.1-11.8,17.3C518.9,103.8,513.9,103.8,513.9,103.8z"/>
	<path class="st7" d="M537.2,192.8l6.2,27.3c1,6.7-52.3,26.8-52.3,26.8l-3.8,65c-6,1.5-9.9-0.8-14.2-2.4c0,0-6.4-67.3-3.8-76.1
		L537.2,192.8z"/>
	<path class="st4" d="M168.5,198.5c0,0-5.3,0.4-5.3,3.1c0,2.8-1.5,6.6,1.8,6.8c3.3,0.2,11.6-1.7,9.1-10.3"/>
	<path class="st4" d="M304.8,236c0,0-8.5,21.2-8.1,25.8c0.4,4.7,0.9,41.2,0.9,41.2l8.8-3.9l2.7-38l9.4-22.7L304.8,236z"/>
	<path class="st5" d="M191.4,104c0,0,12-5,11.7-16.5c0-4-2-13.5-2-13.5s2.9,1,8.3-0.3c0,0,1.6-2.3,3.6-2.3c2.1,0,4.1,2.5,4.1,6.8
		c0,4.3-2.8,5.2-3.8,5.2s-1.5-0.7-2-0.4s-0.2,1.8-0.2,2c0,0.2,1.2,5.8,1.2,7.3s0.4,6.4-7.7,9.8S191.4,104,191.4,104z"/>
	<g>
		<g>
			<polygon class="st14" points="512.9,336 515.9,339.8 520.5,338 517.4,334.1 			"/>
			<polygon class="st15" points="515.9,339.8 515.8,340.5 520.2,338.7 520.5,338 			"/>
			<polygon class="st16" points="512.9,336 515.9,339.8 515.8,340.5 512.8,336.7 			"/>
		</g>
		<g>
			<polygon class="st14" points="517.3,341.7 520.2,345.6 524.9,343.7 521.7,339.8 			"/>
			<polygon class="st15" points="520.2,345.6 520.1,346.3 524.6,344.5 524.9,343.7 			"/>
			<polygon class="st16" points="517.3,341.7 520.2,345.6 520.1,346.3 517.2,342.5 			"/>
		</g>
		<g>
			<polygon class="st14" points="521.8,347.5 524.7,351.4 529.3,349.6 526.2,345.7 			"/>
			<polygon class="st15" points="524.7,351.4 524.6,352.1 529.1,350.3 529.3,349.6 			"/>
			<polygon class="st16" points="521.8,347.5 524.7,351.4 524.6,352.1 521.7,348.3 			"/>
		</g>
		<g>
			<polygon class="st14" points="519.7,333 522.7,336.9 527.3,335.1 524.2,331.2 			"/>
			<polygon class="st15" points="522.7,336.9 522.6,337.6 527,335.8 527.3,335.1 			"/>
			<polygon class="st16" points="519.7,333 522.7,336.9 522.6,337.6 519.6,333.8 			"/>
		</g>
		<g>
			<polygon class="st14" points="524.1,338.8 527,342.6 531.7,340.8 528.5,336.9 			"/>
			<polygon class="st15" points="527,342.6 526.9,343.3 531.4,341.5 531.7,340.8 			"/>
			<polygon class="st16" points="524.1,338.8 527,342.6 526.9,343.3 524,339.5 			"/>
		</g>
		<g>
			<polygon class="st14" points="528.6,344.6 531.5,348.5 536.1,346.6 533,342.7 			"/>
			<polygon class="st15" points="531.5,348.5 531.4,349.2 535.9,347.4 536.1,346.6 			"/>
			<polygon class="st16" points="528.6,344.6 531.5,348.5 531.4,349.2 528.5,345.4 			"/>
		</g>
		<g>
			<polygon class="st14" points="526.5,330.1 529.5,334 534.1,332.1 531,328.2 			"/>
			<polygon class="st15" points="529.5,334 529.4,334.6 533.8,332.8 534.1,332.1 			"/>
			<polygon class="st16" points="526.5,330.1 529.5,334 529.4,334.6 526.4,330.8 			"/>
		</g>
		<g>
			<polygon class="st14" points="530.9,335.8 533.8,339.7 538.5,337.9 535.3,334 			"/>
			<polygon class="st15" points="533.8,339.7 533.7,340.4 538.2,338.6 538.5,337.9 			"/>
			<polygon class="st16" points="530.9,335.8 533.8,339.7 533.7,340.4 530.8,336.6 			"/>
		</g>
		<g>
			<polygon class="st14" points="535.4,341.7 538.3,345.5 542.9,343.7 539.8,339.8 			"/>
			<polygon class="st15" points="538.3,345.5 538.2,346.2 542.7,344.4 542.9,343.7 			"/>
			<polygon class="st16" points="535.4,341.7 538.3,345.5 538.2,346.2 535.3,342.4 			"/>
		</g>
		<g>
			<polygon class="st14" points="533.3,327.1 536.3,331 540.9,329.2 537.8,325.3 			"/>
			<polygon class="st15" points="536.3,331 536.2,331.7 540.6,329.9 540.9,329.2 			"/>
			<polygon class="st16" points="533.3,327.1 536.3,331 536.2,331.7 533.2,327.9 			"/>
		</g>
		<g>
			<polygon class="st14" points="537.7,332.9 540.6,336.8 545.3,334.9 542.1,331 			"/>
			<polygon class="st15" points="540.6,336.8 540.5,337.4 545,335.6 545.3,334.9 			"/>
			<polygon class="st16" points="537.7,332.9 540.6,336.8 540.5,337.4 537.6,333.6 			"/>
		</g>
		<g>
			<polygon class="st14" points="542.2,338.7 545.1,342.6 549.7,340.8 546.6,336.9 			"/>
			<polygon class="st15" points="545.1,342.6 545,343.3 549.5,341.5 549.7,340.8 			"/>
			<polygon class="st16" points="542.2,338.7 545.1,342.6 545,343.3 542.1,339.5 			"/>
		</g>
		<g>
			<polygon class="st14" points="540.1,324.2 543.1,328.1 547.7,326.2 544.6,322.4 			"/>
			<polygon class="st15" points="543.1,328.1 543,328.8 547.4,327 547.7,326.2 			"/>
			<polygon class="st16" points="540.1,324.2 543.1,328.1 543,328.8 540,325 			"/>
		</g>
		<g>
			<polygon class="st14" points="544.5,329.9 547.4,333.8 552.1,332 548.9,328.1 			"/>
			<polygon class="st15" points="547.4,333.8 547.3,334.5 551.8,332.7 552.1,332 			"/>
			<polygon class="st16" points="544.5,329.9 547.4,333.8 547.3,334.5 544.4,330.7 			"/>
		</g>
		<g>
			<polygon class="st14" points="549,335.8 551.9,339.7 556.5,337.8 553.4,333.9 			"/>
			<polygon class="st15" points="551.9,339.7 551.8,340.3 556.3,338.5 556.5,337.8 			"/>
			<polygon class="st16" points="549,335.8 551.9,339.7 551.8,340.3 548.9,336.5 			"/>
		</g>
		<g>
			<polygon class="st14" points="546.9,321.3 549.9,325.1 554.5,323.3 551.4,319.4 			"/>
			<polygon class="st15" points="549.9,325.1 549.8,325.8 554.2,324 554.5,323.3 			"/>
			<polygon class="st16" points="546.9,321.3 549.9,325.1 549.8,325.8 546.8,322 			"/>
		</g>
		<g>
			<polygon class="st14" points="551.3,327 554.2,330.9 558.9,329 555.7,325.1 			"/>
			<polygon class="st15" points="554.2,330.9 554.1,331.6 558.6,329.8 558.9,329 			"/>
			<polygon class="st16" points="551.3,327 554.2,330.9 554.1,331.6 551.2,327.8 			"/>
		</g>
		<g>
			<polygon class="st14" points="555.8,332.8 558.7,336.7 563.3,334.9 560.2,331 			"/>
			<polygon class="st15" points="558.7,336.7 558.6,337.4 563.1,335.6 563.3,334.9 			"/>
			<polygon class="st16" points="555.8,332.8 558.7,336.7 558.6,337.4 555.7,333.6 			"/>
		</g>
		<g>
			<polygon class="st14" points="553.7,318.3 556.7,322.2 561.3,320.4 558.2,316.5 			"/>
			<polygon class="st15" points="556.7,322.2 556.6,322.9 561,321.1 561.3,320.4 			"/>
			<polygon class="st16" points="553.7,318.3 556.7,322.2 556.6,322.9 553.6,319.1 			"/>
		</g>
		<g>
			<polygon class="st14" points="558.1,324.1 561,327.9 565.7,326.1 562.5,322.2 			"/>
			<polygon class="st15" points="561,327.9 560.9,328.6 565.4,326.8 565.7,326.1 			"/>
			<polygon class="st16" points="558.1,324.1 561,327.9 560.9,328.6 558,324.8 			"/>
		</g>
		<g>
			<polygon class="st14" points="562.6,329.9 565.5,333.8 570.1,331.9 567,328 			"/>
			<polygon class="st15" points="565.5,333.8 565.4,334.5 569.9,332.7 570.1,331.9 			"/>
			<polygon class="st16" points="562.6,329.9 565.5,333.8 565.4,334.5 562.5,330.7 			"/>
		</g>
		<g>
			<polygon class="st14" points="560.5,315.4 563.5,319.3 568.1,317.4 565,313.5 			"/>
			<polygon class="st15" points="563.5,319.3 563.4,319.9 567.8,318.1 568.1,317.4 			"/>
			<polygon class="st16" points="560.5,315.4 563.5,319.3 563.4,319.9 560.4,316.1 			"/>
		</g>
		<g>
			<polygon class="st14" points="564.9,321.1 567.8,325 572.5,323.2 569.3,319.3 			"/>
			<polygon class="st15" points="567.8,325 567.7,325.7 572.2,323.9 572.5,323.2 			"/>
			<polygon class="st16" points="564.9,321.1 567.8,325 567.7,325.7 564.8,321.9 			"/>
		</g>
		<g>
			<polygon class="st14" points="569.4,327 572.3,330.8 576.9,329 573.8,325.1 			"/>
			<polygon class="st15" points="572.3,330.8 572.2,331.5 576.7,329.7 576.9,329 			"/>
			<polygon class="st16" points="569.4,327 572.3,330.8 572.2,331.5 569.3,327.7 			"/>
		</g>
		<g>
			<polygon class="st14" points="567.3,312.4 570.3,316.3 574.9,314.5 571.8,310.6 			"/>
			<polygon class="st15" points="570.3,316.3 570.2,317 574.6,315.2 574.9,314.5 			"/>
			<polygon class="st16" points="567.3,312.4 570.3,316.3 570.2,317 567.2,313.2 			"/>
		</g>
		<g>
			<polygon class="st14" points="571.7,318.2 574.6,322.1 579.3,320.2 576.1,316.3 			"/>
			<polygon class="st15" points="574.6,322.1 574.5,322.7 579,320.9 579.3,320.2 			"/>
			<polygon class="st16" points="571.7,318.2 574.6,322.1 574.5,322.7 571.6,318.9 			"/>
		</g>
		<g>
			<polygon class="st14" points="576.2,324 579.1,327.9 583.7,326.1 580.6,322.2 			"/>
			<polygon class="st15" points="579.1,327.9 579,328.6 583.5,326.8 583.7,326.1 			"/>
			<polygon class="st16" points="576.2,324 579.1,327.9 579,328.6 576.1,324.8 			"/>
		</g>
		<g>
			<polygon class="st14" points="574.1,309.5 577.1,313.4 581.7,311.5 578.6,307.7 			"/>
			<polygon class="st15" points="577.1,313.4 577,314.1 581.4,312.3 581.7,311.5 			"/>
			<polygon class="st16" points="574.1,309.5 577.1,313.4 577,314.1 574,310.3 			"/>
		</g>
		<g>
			<polygon class="st14" points="578.5,315.2 581.4,319.1 586.1,317.3 582.9,313.4 			"/>
			<polygon class="st15" points="581.4,319.1 581.3,319.8 585.8,318 586.1,317.3 			"/>
			<polygon class="st16" points="578.5,315.2 581.4,319.1 581.3,319.8 578.4,316 			"/>
		</g>
		<g>
			<polygon class="st14" points="583,321.1 585.9,325 590.5,323.1 587.4,319.2 			"/>
			<polygon class="st15" points="585.9,325 585.8,325.6 590.3,323.8 590.5,323.1 			"/>
			<polygon class="st16" points="583,321.1 585.9,325 585.8,325.6 582.9,321.8 			"/>
		</g>
	</g>
	<g>
		<g>
			<polygon class="st14" points="359.8,429.7 362.8,433.6 367.4,431.8 364.3,427.9 			"/>
			<polygon class="st15" points="362.8,433.6 362.7,434.3 367.2,432.5 367.4,431.8 			"/>
			<polygon class="st16" points="359.8,429.7 362.8,433.6 362.7,434.3 359.7,430.5 			"/>
		</g>
		<g>
			<polygon class="st14" points="364.2,435.5 367.2,439.3 371.8,437.5 368.7,433.6 			"/>
			<polygon class="st15" points="367.2,439.3 367.1,440 371.6,438.2 371.8,437.5 			"/>
			<polygon class="st16" points="364.2,435.5 367.2,439.3 367.1,440 364.1,436.2 			"/>
		</g>
		<g>
			<polygon class="st14" points="368.7,441.3 371.7,445.2 376.3,443.3 373.2,439.4 			"/>
			<polygon class="st15" points="371.7,445.2 371.6,445.9 376,444.1 376.3,443.3 			"/>
			<polygon class="st16" points="368.7,441.3 371.7,445.2 371.6,445.9 368.6,442.1 			"/>
		</g>
		<g>
			<polygon class="st14" points="366.6,426.8 369.6,430.6 374.2,428.8 371.1,424.9 			"/>
			<polygon class="st15" points="369.6,430.6 369.5,431.3 374,429.5 374.2,428.8 			"/>
			<polygon class="st16" points="366.6,426.8 369.6,430.6 369.5,431.3 366.5,427.5 			"/>
		</g>
		<g>
			<polygon class="st14" points="371,432.5 374,436.4 378.6,434.6 375.5,430.7 			"/>
			<polygon class="st15" points="374,436.4 373.9,437.1 378.4,435.3 378.6,434.6 			"/>
			<polygon class="st16" points="371,432.5 374,436.4 373.9,437.1 370.9,433.3 			"/>
		</g>
		<g>
			<polygon class="st14" points="375.5,438.4 378.5,442.2 383.1,440.4 380,436.5 			"/>
			<polygon class="st15" points="378.5,442.2 378.4,442.9 382.8,441.1 383.1,440.4 			"/>
			<polygon class="st16" points="375.5,438.4 378.5,442.2 378.4,442.9 375.4,439.1 			"/>
		</g>
		<g>
			<polygon class="st14" points="373.4,423.8 376.4,427.7 381,425.9 377.9,422 			"/>
			<polygon class="st15" points="376.4,427.7 376.3,428.4 380.8,426.6 381,425.9 			"/>
			<polygon class="st16" points="373.4,423.8 376.4,427.7 376.3,428.4 373.3,424.6 			"/>
		</g>
		<g>
			<polygon class="st14" points="377.8,429.6 380.8,433.4 385.4,431.6 382.3,427.7 			"/>
			<polygon class="st15" points="380.8,433.4 380.7,434.1 385.2,432.3 385.4,431.6 			"/>
			<polygon class="st16" points="377.8,429.6 380.8,433.4 380.7,434.1 377.7,430.3 			"/>
		</g>
		<g>
			<polygon class="st14" points="382.3,435.4 385.3,439.3 389.9,437.5 386.8,433.6 			"/>
			<polygon class="st15" points="385.3,439.3 385.2,440 389.6,438.2 389.9,437.5 			"/>
			<polygon class="st16" points="382.3,435.4 385.3,439.3 385.2,440 382.2,436.2 			"/>
		</g>
		<g>
			<polygon class="st14" points="380.2,420.9 383.2,424.8 387.8,422.9 384.7,419 			"/>
			<polygon class="st15" points="383.2,424.8 383.1,425.5 387.6,423.7 387.8,422.9 			"/>
			<polygon class="st16" points="380.2,420.9 383.2,424.8 383.1,425.5 380.1,421.7 			"/>
		</g>
		<g>
			<polygon class="st14" points="384.6,426.6 387.6,430.5 392.2,428.7 389.1,424.8 			"/>
			<polygon class="st15" points="387.6,430.5 387.5,431.2 392,429.4 392.2,428.7 			"/>
			<polygon class="st16" points="384.6,426.6 387.6,430.5 387.5,431.2 384.5,427.4 			"/>
		</g>
		<g>
			<polygon class="st14" points="389.1,432.5 392.1,436.3 396.7,434.5 393.6,430.6 			"/>
			<polygon class="st15" points="392.1,436.3 392,437 396.4,435.2 396.7,434.5 			"/>
			<polygon class="st16" points="389.1,432.5 392.1,436.3 392,437 389,433.2 			"/>
		</g>
		<g>
			<polygon class="st14" points="387,418 390,421.8 394.6,420 391.5,416.1 			"/>
			<polygon class="st15" points="390,421.8 389.9,422.5 394.4,420.7 394.6,420 			"/>
			<polygon class="st16" points="387,418 390,421.8 389.9,422.5 386.9,418.7 			"/>
		</g>
		<g>
			<polygon class="st14" points="391.4,423.7 394.4,427.6 399,425.7 395.9,421.8 			"/>
			<polygon class="st15" points="394.4,427.6 394.3,428.3 398.8,426.5 399,425.7 			"/>
			<polygon class="st16" points="391.4,423.7 394.4,427.6 394.3,428.3 391.3,424.5 			"/>
		</g>
		<g>
			<polygon class="st14" points="395.9,429.5 398.9,433.4 403.5,431.6 400.4,427.7 			"/>
			<polygon class="st15" points="398.9,433.4 398.8,434.1 403.2,432.3 403.5,431.6 			"/>
			<polygon class="st16" points="395.9,429.5 398.9,433.4 398.8,434.1 395.8,430.3 			"/>
		</g>
		<g>
			<polygon class="st14" points="393.8,415 396.8,418.9 401.4,417.1 398.3,413.2 			"/>
			<polygon class="st15" points="396.8,418.9 396.7,419.6 401.2,417.8 401.4,417.1 			"/>
			<polygon class="st16" points="393.8,415 396.8,418.9 396.7,419.6 393.7,415.8 			"/>
		</g>
		<g>
			<polygon class="st14" points="398.2,420.8 401.2,424.6 405.8,422.8 402.7,418.9 			"/>
			<polygon class="st15" points="401.2,424.6 401.1,425.3 405.6,423.5 405.8,422.8 			"/>
			<polygon class="st16" points="398.2,420.8 401.2,424.6 401.1,425.3 398.1,421.5 			"/>
		</g>
		<g>
			<polygon class="st14" points="402.7,426.6 405.7,430.5 410.3,428.6 407.2,424.7 			"/>
			<polygon class="st15" points="405.7,430.5 405.6,431.2 410,429.4 410.3,428.6 			"/>
			<polygon class="st16" points="402.7,426.6 405.7,430.5 405.6,431.2 402.6,427.4 			"/>
		</g>
		<g>
			<polygon class="st14" points="400.6,412.1 403.6,415.9 408.2,414.1 405.1,410.2 			"/>
			<polygon class="st15" points="403.6,415.9 403.5,416.6 408,414.8 408.2,414.1 			"/>
			<polygon class="st16" points="400.6,412.1 403.6,415.9 403.5,416.6 400.5,412.8 			"/>
		</g>
		<g>
			<polygon class="st14" points="405,417.8 408,421.7 412.6,419.9 409.5,416 			"/>
			<polygon class="st15" points="408,421.7 407.9,422.4 412.3,420.6 412.6,419.9 			"/>
			<polygon class="st16" points="405,417.8 408,421.7 407.9,422.4 404.9,418.6 			"/>
		</g>
		<g>
			<polygon class="st14" points="409.5,423.7 412.5,427.5 417.1,425.7 414,421.8 			"/>
			<polygon class="st15" points="412.5,427.5 412.4,428.2 416.8,426.4 417.1,425.7 			"/>
			<polygon class="st16" points="409.5,423.7 412.5,427.5 412.4,428.2 409.4,424.4 			"/>
		</g>
		<g>
			<polygon class="st14" points="407.4,409.1 410.4,413 415,411.2 411.9,407.3 			"/>
			<polygon class="st15" points="410.4,413 410.3,413.7 414.8,411.9 415,411.2 			"/>
			<polygon class="st16" points="407.4,409.1 410.4,413 410.3,413.7 407.3,409.9 			"/>
		</g>
		<g>
			<polygon class="st14" points="411.8,414.9 414.8,418.7 419.4,416.9 416.3,413 			"/>
			<polygon class="st15" points="414.8,418.7 414.7,419.4 419.1,417.6 419.4,416.9 			"/>
			<polygon class="st16" points="411.8,414.9 414.8,418.7 414.7,419.4 411.7,415.6 			"/>
		</g>
		<g>
			<polygon class="st14" points="416.3,420.7 419.3,424.6 423.9,422.8 420.8,418.9 			"/>
			<polygon class="st15" points="419.3,424.6 419.1,425.3 423.6,423.5 423.9,422.8 			"/>
			<polygon class="st16" points="416.3,420.7 419.3,424.6 419.1,425.3 416.2,421.5 			"/>
		</g>
		<g>
			<polygon class="st14" points="414.2,406.2 417.2,410.1 421.8,408.2 418.7,404.3 			"/>
			<polygon class="st15" points="417.2,410.1 417.1,410.8 421.6,409 421.8,408.2 			"/>
			<polygon class="st16" points="414.2,406.2 417.2,410.1 417.1,410.8 414.1,407 			"/>
		</g>
		<g>
			<polygon class="st14" points="418.6,411.9 421.6,415.8 426.2,414 423.1,410.1 			"/>
			<polygon class="st15" points="421.6,415.8 421.5,416.5 425.9,414.7 426.2,414 			"/>
			<polygon class="st16" points="418.6,411.9 421.6,415.8 421.5,416.5 418.5,412.7 			"/>
		</g>
		<g>
			<polygon class="st14" points="423.1,417.8 426.1,421.6 430.7,419.8 427.6,415.9 			"/>
			<polygon class="st15" points="426.1,421.6 425.9,422.3 430.4,420.5 430.7,419.8 			"/>
			<polygon class="st16" points="423.1,417.8 426.1,421.6 425.9,422.3 423,418.5 			"/>
		</g>
		<g>
			<polygon class="st14" points="421,403.3 424,407.1 428.6,405.3 425.5,401.4 			"/>
			<polygon class="st15" points="424,407.1 423.9,407.8 428.4,406 428.6,405.3 			"/>
			<polygon class="st16" points="421,403.3 424,407.1 423.9,407.8 420.9,404 			"/>
		</g>
		<g>
			<polygon class="st14" points="425.4,409 428.4,412.9 433,411 429.9,407.1 			"/>
			<polygon class="st15" points="428.4,412.9 428.3,413.6 432.7,411.8 433,411 			"/>
			<polygon class="st16" points="425.4,409 428.4,412.9 428.3,413.6 425.3,409.8 			"/>
		</g>
		<g>
			<polygon class="st14" points="429.9,414.8 432.9,418.7 437.5,416.9 434.4,413 			"/>
			<polygon class="st15" points="432.9,418.7 432.7,419.4 437.2,417.6 437.5,416.9 			"/>
			<polygon class="st16" points="429.9,414.8 432.9,418.7 432.7,419.4 429.8,415.6 			"/>
		</g>
	</g>
	<path class="st7" d="M462.3,303.3c0,0-13.6-71.3-11.9-74.8s42-26.8,42-26.8l17.1,6.5c0,0-45.3,18.4-48.3,22.7
		c-1.2,3.7,8,69.4,8,69.4S464.8,303,462.3,303.3z"/>
	<path class="st4" d="M493.1,201.8c0,0-5.9-2.4-9.1,0s-0.8,10.5-0.8,10.5s2.1-4.5,4.2-5.1c2.1-0.6,5-0.6,5-0.6"/>
	<path class="st4" d="M490.3,144.7c0,0-4.7,27.9-5.4,35.5c-0.7,7.6,6.8,27,6.8,27s3.5,0.2,5.9,1l2.4-1.9l-4.4-25.1l1.6-33.4
		L490.3,144.7z"/>
	<path class="st5" d="M545.6,148.8c-0.5,1.1-1.8,35.4-4.5,40.5s-43,24.6-43,24.6l-15.8,6.4c0,0-0.5-14.1,6.2-13.9s9,0.9,9,0.9
		l33.7-24.5l2-31.3C538.1,150.7,542.6,149.6,545.6,148.8z"/>
	<path class="st12" d="M179.4,62.2c0,0,2.1,3.8,17.9,10.3c8.1,3.4,12.1,1.1,12.1,1.1s-16.1-10.2-24.8-13.8
		C181.9,58.8,180,62.8,179.4,62.2z"/>
	<path class="st5" d="M228.8,145.2c0,0-1,43-2.7,44.2c-1.7,1.2-41.5,17.9-43,18.1s-2.5,7.7-8.5,7.4c-6-0.3-14-0.5-12.5-5.2
		s7.5-12.6,12-11.6s4,4,6,3c2-1,37-17.2,37-17.2l6-36.7"/>
	<path class="st24" d="M193.4,184c0,0,19.3,1,24.4-4.5c0,0,6.3-27.5,5.3-32.3l11-4.1c0,0-1.6-24.8-4.8-25.3
		C216.2,115.6,210.8,171.6,193.4,184z"/>
	<path class="st25" d="M498.2,76.1c0,0,2.4-2.3,6-2.1s5.1,4.8,4.7,6.2s-2,4.8-3.7,6s4.6,3,4.6,3s1.5,8.8,3.6,14.4
		c-3.1,0-14.9-6.2-16.2-19.9C497.2,81.4,497.2,79.6,498.2,76.1z"/>
	<path class="st4" d="M497.8,82.6"/>
	<path class="st1" d="M505.8,96.3c0,0,1.9-2.6,4-2.5c3.9,0,7,1.8,7,1.8L505.8,96.3z"/>
	<path class="st26" d="M505.8,96.3c0,0,2,1.7,4.3,1.7c2.4,0,6.7-2.4,6.7-2.4L505.8,96.3z"/>
	<path class="st5" d="M515.3,78.8c0,0,1.1-2.2,4.1-2.2c2.9-0.1,3.9,2.7,3.9,2.7L515.3,78.8z"/>
	<path class="st4" d="M506.9,79.3c0,0-0.8-2.5-3.8-1.9s-2.2,2.7-2.2,2.7L506.9,79.3z"/>
	<polygon class="st7" points="517.4,79 520.7,79.2 520.7,76.8 517.6,76.6 	"/>
	<path class="st27" d="M515.3,78.7c0,0,1.3-2.2,4.1-2.2c3,0,3.9,2.8,3.9,2.8"/>
	<polygon class="st7" points="502.6,79.8 502.1,77.5 504.6,77.3 505,79.5 	"/>
	<path class="st27" d="M506.9,79.3c0,0-0.4-2.3-3.8-1.9c-2.8,0.3-2.2,2.7-2.2,2.7"/>
	<path class="st28" d="M400.4,169.8c0,0-4.4-8.5-14.6-15.5c-10.1-7.1-11.4-8.8-11.4-8.8c-1.4,2.2-1.4,6.2,0,7.2
		C379.5,156.1,384.7,159.8,400.4,169.8z"/>
	<path class="st25" d="M177.4,73.1c0.1,0,5.6-3.3,8.8-1s3.2,12,0,15.8c0,0,3.5,1.9,5.2,0.7V104c0,0-9.9-0.8-12.4-12.1
		S177.4,73.1,177.4,73.1z"/>
	<path class="st1" d="M185.9,96c0,0,1.9-2.6,4-2.5c3.9,0,7,1.8,7,1.8L185.9,96z"/>
	<path class="st26" d="M185.9,96c0,0,2,1.7,4.3,1.7s6.7-2.4,6.7-2.4L185.9,96z"/>
	<g>
		<polygon class="st7" points="196.7,79.2 200.1,79.4 200.1,77.1 196.9,76.9 		"/>
		<path class="st29" d="M194.6,79c0,0,1.3-2.2,4.1-2.2c3,0,3.9,2.8,3.9,2.8"/>
		<polygon class="st7" points="181.9,80.1 181.4,77.7 183.9,77.6 184.3,79.8 		"/>
		<path class="st29" d="M186.2,79.5c0,0-0.4-2.3-3.8-1.9c-2.8,0.3-2.2,2.7-2.2,2.7"/>
	</g>
	<path class="st7" d="M360.9,288.2c0,0-67.4,34-67.2,41c0.3,7,5.6,84.6,5.6,84.6c13,2.1,24,1.2,34-1l-10-77.2
		c0,0,17.8-2.9,40.9-14.3c23.1-11.4,27.2-15.4,28.9-19.7c1.7-4.2-3.7-17.3-9.5-22.3c0,0-14.7,5.4-20.4,6.5L360.9,288.2z"/>
	<path class="st7" d="M295.2,409.2h-5.3c0,0-13.7-83.3-12.6-87c1.2-3.7,57.9-37.4,57.9-37.4s25.9,2.8,28,0.9
		c2.1-1.9-2.3,2.5-2.3,2.5s-61.2,24.4-72.5,37.2C286,335.3,295.2,409.2,295.2,409.2z"/>
	<path class="st4" d="M306.4,299.1l5.4,10l-6.1,0.1l-6.6,7.5l1.9-5.3c0,0-8.2,9.1-9.4,8.3s4.4-8.9,4.4-8.9s-7.6,6-8.1,5.3
		s6.4-8.2,6.4-8.2s-6.1,3-6.4,2.1s9.9-7.1,9.9-7.1"/>
	<path class="st4" d="M303.8,118.1c0,0-2.7,17,0,24.7c2.7,7.7,11,21,16.7,20.7c5.7-0.3,34.7-7.7,35.7-27c0,0,7.3-7,5-12.7
		c-2.3-5.7-9-2.7-9.3-1.3c-0.3,1.3-5.7-12.3-5.7-12.3L303.8,118.1z"/>
	<path class="st22" d="M360.3,165.2c0,0-4.5,3.3-10.1-2.7c-3.3,6.1-11.9,11.3-20.7,7.3c-3,2.7-15,9.6-16,13.6s-17.7,42.7-16.7,48.7
		s19.5,13,24.6,9.7l4.1,37c0,0,10.7,11.3,32.2,8s35.8-12.3,35.8-12.3s-20-55.3-19-62.7c1-7.3,26.8-35.3,25.9-42
		c-0.9-6.7-23.6-19.7-25.9-24.3C373.3,143.2,364.9,155.3,360.3,165.2c-2.1,4.5-2.6,8.3-2.6,8.3"/>
	<path class="st30" d="M335.5,202.5c0.7,0,8.3-3.8,8.3-3.8v-10.2l4.8,8l9.1-4.5l-5.5,9.2l6.5,7.2l-10.1-3.2l-4.3,9.3l-0.8-9.6
		L335.5,202.5z"/>
	<path class="st31" d="M325.4,172.6c0,0,10.1,7.2,18.3,3.5c8.2-3.7,10-10.9,10-10.9"/>
	<path class="st23" d="M343.7,112.5c0,0-25.5,5.3-33.2,6.2c-10.1,1.2-9.2-2.2-10.6-8.5c-1.3-6.3,1.6-15.3,12.6-21
		c11-5.7,23.6-7,23.6-7s21.1-1,30.4,12.7c9.3,13.7,7,19,4.3,29.7c-2.7,10.7-9.9,17.9-15.7,17l1-5c0,0,5-3.6,5-11.7
		c0-5.7-9.3-2.3-9.3-2.3L343.7,112.5z"/>
	<path class="st4" d="M330.5,157.5l-1,12.3c2.5,4.3,15.9,6,20.7-7.3l-4.5-9.3C345.6,153.2,332.1,160.1,330.5,157.5z"/>
	<path class="st25" d="M312.5,135.5c0,0,5.1-8.4,3.9-8.9s-5.5-5.4-9.4-4.2c-3.9,1.2-4,4.7-4,4.7s-1,5.6-0.1,11.5
		c1.7,11.1,11,21,11,21s0.9-2,1.4-7.7c1-2.7-6-9.9-5.7-11.6S312.5,135.5,312.5,135.5z"/>
	<path class="st24" d="M321.4,241.8l-5-45.8l-12.6,42.4C303.7,238.4,313.5,244.9,321.4,241.8z"/>
	<path class="st24" d="M374.5,211.8l-4.1-22.3l15.7-29l14.3,9.3c0,0-0.1,4.6-7,13.5c-6.9,8.9-14.7,20.4-14.7,20.4L374.5,211.8z"/>
	<path class="st5" d="M335.5,115.1c0,0,9.9,27.1-15.1,48.3c0,0,16.2-0.9,28.1-12.2c8-7.6,7.6-14.8,7.6-14.8s5-3.6,5-11.7
		c0-6.2-9.3-2.3-9.3-2.3l-8.1-10L335.5,115.1z"/>
	<path class="st5" d="M310.3,152.3c0,0,2.3-3.1,4.7-3c4.6,0,8.4,2.2,8.4,2.2L310.3,152.3z"/>
	<path class="st25" d="M310.3,152.3c0,0,2.4,2,5.2,2c2.8,0,7.9-2.9,7.9-2.9L310.3,152.3z"/>
	<path class="st32" d="M343.7,112.5c0,0-27.5,7-35.2,6c41.2-24,27.6-36.3,27.6-36.3s21.1-1,30.4,12.7c6.9,10.3,9,18,6.3,28.7
		c-2.7,10.7-11.2,20.3-17.7,18l1-5c0,0,5-3.6,5-11.7c0-5.7-9.3-2.3-9.3-2.3L343.7,112.5z"/>
	<path class="st24" d="M370.3,189.5l-4,6.5l9.4,86.4c0,0,12-4,17.7-7.9L370.3,189.5z"/>
	<path class="st5" d="M321.2,130.8c0,0,1.5-2.8,5.3-2.9s5.1,3.5,5.1,3.5L321.2,130.8z"/>
	<path class="st4" d="M312.8,131.1c0,0-1-3.1-4.7-2.4c-3.8,0.8-2.8,3.4-2.8,3.4L312.8,131.1z"/>
	<polygon class="st7" points="323.9,131 328.3,131.2 328.3,128.1 324.2,127.9 	"/>
	<polygon class="st7" points="307.4,131.8 306.8,128.9 309.9,128.6 310.4,131.4 	"/>
	<path class="st12" d="M305.2,132.1c0,0-0.7-3,2.8-3.4c2.8-0.4,3.9,0.8,4.4,1.6c0.2,0.4,0.3,0.8,0.3,0.8s-0.3-6.2-6-4.4
		C303.5,127.7,305.2,132.1,305.2,132.1z"/>
	<path class="st12" d="M321.2,130.8c0,0,0-5.5,4.5-5.9c6.2-0.4,5.9,6.5,5.9,6.5s-1.4-3.5-5.3-3.5c-3.6,0-5.1,2.7-5.1,2.7"/>
	<path class="st4" d="M391.7,163.1c0,0,16-68.2,16.5-75.5c0.5-7.3-17.9-43-19.7-49.4c-1.8-6.4,7.4-31,2.7-31.1
		c-0.9,0-4.3,13.2-5.9,13.2c-1.1,0,1.1-19.7-2.9-18.8c-1.6,0.4-1.5,17.7-2.8,17.7c-1.3,0-3-16.7-6-16.8c-2.4,0,2.7,18.4,1.5,19.2
		c-0.7,0.5-7.1-14.9-9-15.5c-4.6-1.4,6.9,22,7.7,24.3S362.4,29,361,31.8c-1.4,2.7,19.2,8.7,19.2,8.7s12.4,40.7,12,50.4
		c-0.4,9.6-12.4,62.7-14.9,62.7"/>
	<path class="st5" d="M386.4,159.6l16.2-65.9l2.1-17.5c0,0,3.1,6.5,3.4,11.5c0,8.9-7.8,45.6-16.5,75.5L386.4,159.6z"/>
	<polygon class="st5" points="310.4,241.5 306.2,260 303.7,299.1 310.5,306.7 306.2,297.1 309,262.1 316.5,243.2 	"/>
</g>
</svg>
