<?xml version="1.0" encoding="utf-8"?>
<!-- Generator: Adobe Illustrator 19.2.1, SVG Export Plug-In . SVG Version: 6.00 Build 0)  -->
<svg version="1.1" id="Layer_1" xmlns="http://www.w3.org/2000/svg" xmlns:xlink="http://www.w3.org/1999/xlink" x="0px" y="0px"
	 viewBox="0 0 718.6 512" style="enable-background:new 0 0 718.6 512;" xml:space="preserve">
<style type="text/css">
	.st0{fill:#739859;}
	.st1{fill:#A0CE81;}
	.st2{fill:#555555;}
	.st3{fill:#333333;}
	.st4{fill:#7F7F7F;}
	.st5{opacity:0.5;fill:none;stroke:#555555;stroke-width:1.6465;stroke-linecap:round;stroke-linejoin:round;stroke-miterlimit:10;}
	.st6{fill:none;stroke:#331812;stroke-width:2;stroke-linecap:round;stroke-linejoin:round;stroke-miterlimit:10;}
	.st7{fill:#A4AFB5;}
	.st8{fill:#8A8E8E;}
	.st9{fill:#F1B538;}
	.st10{fill:#476776;}
	.st11{fill:#FFFFFF;}
	.st12{fill:none;stroke:#333333;stroke-width:2;stroke-linecap:round;stroke-linejoin:round;stroke-miterlimit:10;}
	.st13{fill:#B58834;}
	.st14{fill:#A1792F;}
	.st15{fill:#8D6A29;}
	.st16{fill:#3D5966;}
	.st17{fill:none;stroke:#007AD9;stroke-width:2;stroke-linecap:round;stroke-linejoin:round;stroke-miterlimit:10;}
	.st18{fill:#007AD9;}
	.st19{fill:none;stroke:#7A4226;stroke-width:2;stroke-linecap:round;stroke-linejoin:round;stroke-miterlimit:10;}
	.st20{fill:#F1A833;stroke:#7A4226;stroke-width:1.5;stroke-miterlimit:10;}
	.st21{opacity:0.4;fill:#FAE8C3;stroke:#007AD9;stroke-linecap:round;stroke-miterlimit:10;}
	.st22{fill:#F1A833;}
	.st23{fill:#F6645C;}
	.st24{fill:#F64F44;}
	.st25{fill:#F8D71B;}
	.st26{fill:#F7F4E9;}
	.st27{fill:#DBDBDB;}
	.st28{opacity:0.7;fill:#A4AFB5;}
	.st29{fill:#9E9E9E;}
	.st30{fill:#FFFFFF;stroke:#007AD9;stroke-width:2;stroke-linecap:round;stroke-linejoin:round;stroke-miterlimit:10;}
	.st31{fill:none;stroke:#8D6A29;stroke-width:2;stroke-linecap:round;stroke-linejoin:round;stroke-miterlimit:10;}
	.st32{opacity:0.7;fill:#DBDBDB;}
	.st33{opacity:0.3;fill:none;stroke:#DBDBDB;stroke-width:2;stroke-linecap:round;stroke-linejoin:round;stroke-miterlimit:10;}
	.st34{opacity:0.5;fill:none;stroke:#A4AFB5;stroke-width:2;stroke-linecap:round;stroke-linejoin:round;stroke-miterlimit:10;}
	.st35{fill:#7A4226;}
	.st36{fill:#222222;}
	
		.st37{opacity:0.5;fill:none;stroke:#555555;stroke-width:1.6972;stroke-linecap:round;stroke-linejoin:round;stroke-miterlimit:10;}
	
		.st38{opacity:0.5;fill:none;stroke:#555555;stroke-width:1.6104;stroke-linecap:round;stroke-linejoin:round;stroke-miterlimit:10;}
	
		.st39{opacity:0.5;fill:none;stroke:#555555;stroke-width:1.6478;stroke-linecap:round;stroke-linejoin:round;stroke-miterlimit:10;}
	
		.st40{opacity:0.5;fill:none;stroke:#555555;stroke-width:1.7634;stroke-linecap:round;stroke-linejoin:round;stroke-miterlimit:10;}
	
		.st41{opacity:0.5;fill:none;stroke:#A4AFB5;stroke-width:1.6632;stroke-linecap:round;stroke-linejoin:round;stroke-miterlimit:10;}
	
		.st42{opacity:0.3;fill:none;stroke:#DBDBDB;stroke-width:1.7513;stroke-linecap:round;stroke-linejoin:round;stroke-miterlimit:10;}
</style>
<g>
	<path class="st0" d="M718.6,359.5c0,95.3-160.9,152.5-359.3,152.5S0,453.7,0,359.5c0-82,160.9-148.5,359.3-148.5
		S718.6,277.4,718.6,359.5z"/>
	<ellipse class="st1" cx="359.3" cy="350.1" rx="359.3" ry="148.5"/>
	<polygon class="st2" points="191.6,406.3 359.2,463.8 642.9,337.7 474.5,284.4 	"/>
	<polygon class="st3" points="474.5,412.7 474.5,284.4 642.9,337.7 	"/>
	<polygon class="st3" points="342.7,342.6 342.7,458.2 359.2,463.8 387.4,451.3 387.4,339.3 	"/>
	<polyline class="st3" points="412.2,440.4 436.7,429.4 409,418.2 396.8,432.2 	"/>
	<path class="st4" d="M376,429.3c-9.4,14.9,1.6,26.5,1.6,26.5l34.6-15.4c-10.4-2.7-4.7-17.5-4.7-17.5S383.8,417,376,429.3z"/>
	<line class="st5" x1="381.7" y1="428.2" x2="404.5" y2="419.9"/>
	<path class="st3" d="M229.6,82.8c0,0-12.4,25.4-22.8,28.3s-15-6.1-15-6.1l27.9-31.3"/>
	<path class="st6" d="M221.4,87.2c0,0-6.9,16.6-21.4,22.3"/>
	<path class="st7" d="M122.6,115.5c0,0-38.1,17.3-38.1,22.1s-1.7,30.4,0,33.7c1.7,3.3,7.3,4,7.3,4"/>
	<path class="st8" d="M118.5,123.9c0,0-27.7,11.9-27.7,16.6s-1.7,30.4,0,33.7c1.7,3.3,13.7-2.7,13.7-2.7"/>
	<polyline class="st9" points="153.6,98.7 166.5,83.4 182.7,81.9 174.9,104.7 165.7,113.3 148.4,103.2 153.6,98.7 	"/>
	<g>
		<polygon class="st7" points="152.4,220.6 137.6,226.1 133.6,233.1 161.4,239.2 172,224.4 		"/>
		<path class="st7" d="M89.8,230.9c0,2.5,58.3,17.8,65.1,13.6c4.7-3,6.5-5.3,6.5-5.3l-71.6-14.8C89.8,224.4,89.8,228.4,89.8,230.9z"
			/>
	</g>
	<path class="st8" d="M171.2,223.2l-23.8-4.1l-3.2,5.8l15.3,3.8l-56.4-13c0,0-13.3,6.1-13.3,8.6s58,17.3,65.1,13.6
		c7.1-3.8,10-7.9,10-7.9L171.2,223.2z"/>
	<path class="st3" d="M170.8,217.7c-13.6,26.4-14.3,41.5-15.2,66.3c0,0,0.1,3.7,10.9,3.4c0,0,7.4-27.6,23.6-49.4l7.3-9.4l-2.5-28.8
		l-56.7-2l-36.2,3.8l-1.4,4.3c0,0,0.6,24,33.4,22.7c20.2,0.1,33.2-3.7,33.2-3.7"/>
	<path class="st7" d="M159.4,293.8c0,0-9.4,7.2-25.8,7.2s-27.1-11.5-27.1-11.5v-5.4L159.4,293.8z"/>
	<path class="st10" d="M176,152.4v-9.9c0-6.1,2.8-11.8,9-11.6l21.8,0l13.6-5.2l-10.1,3.6l-17.9,8.3c2,6,5.2,9.5,9.8,10.3l37.7-10.7
		c10.2-1.6,9.7-14,0-16.2l-31.2-8.4c-9.7-5.7-21.9-6.6-36-7l-2.7,3.6c-10.1,3.1-19.4-9.9-19.4-9.9s-2.9-3.1-13.5-1.6
		c-20,3.3-40.7,102.9-40.7,107.1s5.4,5.3,23.6,3.8s28.2-7.5,28.2-7.5"/>
	<path class="st11" d="M242.1,266.4l3.4,6.3c0,0-3,9.7-11.3,6.9l-3.4-6.3L242.1,266.4z"/>
	<path class="st3" d="M223.7,202.8c1.9,20.8,18.4,63.5,18.4,63.5c-3.9,7.5-11.3,6.9-11.3,6.9c-17.7-18.8-28.1-49.5-28.1-49.5"/>
	<polygon class="st7" points="136.4,277.7 129.5,277.7 129.5,241.9 136.4,243.8 	"/>
	<path class="st8" d="M116,279.3l13.5-3.4c2.3,1.2,4.6,1.2,6.9,0.1l19.3,4.4l-0.1,2.7c0,0-3.7,4.2-4.6,9.3
		c-4.5,2.9-12.9,3.9-18.7,3.7c-14.8-0.7-21.4-11.1-21.4-12.2"/>
	<path class="st2" d="M245.5,272.7c5.5,8,18,7.7,28.2,6.9c10.2-0.8,9.4-3,11.6,1.9s-13.7,12.5-13.7,12.5s-1.2,1.6-6.7,2.9
		c-5.5,1.3-10.5-3.6-10.5-3.6l1.4,7.2l-6.4,3.2l-6.4-3.2c0,0-6.1-3.8-7.2-9.8c-1.1-6.1-1.7-11-1.7-11
		C238.8,279.6,242.9,278.3,245.5,272.7z"/>
	<polyline class="st12" points="247.9,281.5 253.2,278.3 254.7,283.2 	"/>
	<line class="st12" x1="246.5" y1="300.8" x2="253.7" y2="296.8"/>
	<polygon class="st13" points="200.5,209.9 200.5,335.8 208.2,331.3 208.2,218.1 362.2,162.6 360.9,270.6 369.7,265.1 370.5,149.3 	
		"/>
	<polygon class="st14" points="109.8,176.8 199.9,209.9 370.6,149 273.5,119.5 	"/>
	<polygon class="st11" points="275.3,166.8 269.4,150.3 316.1,133.8 323,149.5 	"/>
	<polyline class="st13" points="118.5,306 125.3,301.4 125.3,191.1 118.5,188.4 	"/>
	<polyline class="st15" points="360.9,270.5 352.3,265.8 352.8,166 362.3,162.5 	"/>
	<polyline class="st15" points="200.5,335.8 191.8,330.6 191.8,216.6 118.5,188.9 118.5,306.6 110.8,301.9 110.8,176.9 200.5,209.9 
			"/>
	<path class="st9" d="M199.9,147.9c-12.5,11.1-16.7,1.1-18.2-1.2s-0.9-6,1.4-7.8c2.3-1.8,10.1-1.3,10.1-1.3"/>
	<g>
		<path class="st16" d="M282,150.7c1.1-0.4,2.1-0.3,3,0.1c0.1,0.1,0.2,0.2,0.1,0.3l-0.6,1.3c-0.1,0.1-0.2,0.2-0.3,0.1
			c-0.5-0.2-1.1-0.2-1.7,0c-1.3,0.5-1.9,1.9-1.6,3.2c0.3,1.3,1.6,2,2.9,1.5c0.5-0.2,1.1-0.6,1.4-1.1c0.1-0.1,0.2-0.2,0.3-0.1
			l1.1,0.6c0.1,0.1,0.1,0.2,0.1,0.3c-0.6,1-1.5,1.7-2.5,2.1c-2.3,0.8-4.6-0.4-5.2-2.7C278.4,154,279.7,151.5,282,150.7z"/>
		<path class="st16" d="M286.2,149.6c0-0.1,0-0.3,0.2-0.3l1.4-0.5c0.1,0,0.2,0,0.3,0.1l0.8,2.9l3.3-1.2l-0.8-2.9
			c0-0.1,0-0.3,0.2-0.3l1.4-0.5c0.1,0,0.2,0,0.3,0.1l2,7.7c0,0.1,0,0.3-0.2,0.3l-1.4,0.5c-0.1,0-0.2,0-0.3-0.1l-0.8-3l-3.3,1.2
			l0.8,3c0,0.1,0,0.3-0.2,0.3l-1.4,0.5c-0.1,0-0.2,0-0.3-0.1L286.2,149.6z"/>
		<path class="st16" d="M296,154.4l1.5-9.1c0-0.1,0.1-0.2,0.2-0.2l0.1,0c0.1,0,0.2,0,0.2,0.1l5.6,6.5c0.1,0.1,0.1,0.3-0.1,0.4
			l-1.3,0.5c-0.2,0.1-0.3,0-0.5-0.1l-0.6-0.8l-3.1,1.1l-0.2,1.1c0,0.2-0.1,0.3-0.3,0.4l-1.3,0.4C296.1,154.7,295.9,154.5,296,154.4z
			 M300,150.2l-1.4-1.6l0,0l-0.4,2.2L300,150.2z"/>
		<path class="st16" d="M302.5,143.7c0-0.1,0-0.3,0.2-0.3l1.4-0.5c0.1,0,0.2,0,0.3,0.1l2,7.7c0,0.1,0,0.3-0.2,0.3l-1.4,0.5
			c-0.1,0-0.2,0-0.3-0.1L302.5,143.7z"/>
		<path class="st16" d="M306.3,142.4c0-0.1,0-0.3,0.2-0.3l3.4-1.2c1.4-0.5,2.8,0.2,3.1,1.6c0.3,1.1-0.2,2.2-1.1,2.9l2.3,2.4
			c0.1,0.1,0.1,0.3-0.1,0.4l-1.5,0.5c-0.1,0-0.2,0-0.2,0l-2.3-2.5l-0.8,0.3l0.8,2.9c0,0.1,0,0.3-0.2,0.3l-1.4,0.5
			c-0.1,0-0.2,0-0.3-0.1L306.3,142.4z M310.6,144.4c0.5-0.2,0.7-0.7,0.6-1.2c-0.1-0.5-0.6-0.7-1.1-0.6l-1.7,0.6l0.5,1.8L310.6,144.4
			z"/>
	</g>
	<path class="st17" d="M158.9,313"/>
	<path class="st12" d="M253.2,278.3c0,0-4.7-5.8-1-7.3C255.9,269.6,258.6,275.1,253.2,278.3z"/>
	<path class="st12" d="M254.9,279c0,0,5.6-1.3,7.9-5.6"/>
	<path class="st2" d="M155.2,283.5c0,0-3.9,5.2-5,12.3c-1.1,7.1,1.2,14.2,1.2,14.2l3.8,2.6c0,0,1,7.6,4.9,12
		c3.9,4.4,11.8,5.6,15.8,1.7c4-4-0.9-13.7-4.2-22.5c-3.3-8.8-4.8-16.5-4.8-16.5S160.1,290.6,155.2,283.5z"/>
	<path class="st12" d="M161.2,298.7l4.8-6.1c1.4-2.5,5.9-1.5,6.1,1.5c0.1,2.1-1.5,5.1-4.6,3.5l-6.8-3.3c-2.5-1.2-4.5-0.3-4.7,2
		C155.8,299.2,158.9,300.9,161.2,298.7z"/>
	<line class="st12" x1="169.6" y1="309.5" x2="162.8" y2="305.6"/>
	<line class="st12" x1="168.1" y1="304.7" x2="163.8" y2="311"/>
	<path class="st12" d="M159.8,315.6c0,0,2.9,7.9,7.3,8.4c4.4,0.5,6.1-1.9,6.1-1.9"/>
	<line class="st12" x1="152.4" y1="306.2" x2="155.4" y2="308.4"/>
	<polyline class="st12" points="162.4,302.5 163.8,295.4 167.1,301.5 	"/>
	<path class="st11" d="M166.9,287.1c0,0-7.5,3.9-11.7-3.6l0.7-7.6c0,0,4.2,6.8,13.2,3L166.9,287.1z"/>
	<path class="st16" d="M184.9,104.3c-4.5-0.3-2.2,3.1-2.2,9.8s-1,16.8-1,16.8l25.1,0l14.6-4.8l-9.4,5.3l-19.6,6.1
		c2,6,4.2,10.5,8.9,11.2l38.7-11.7c10.2-1.6,9.7-14,0-16.2l-35.1-10.4"/>
	<path class="st9" d="M197.3,105.7c0.6-0.1-5.8,4.8-7.1,5.4c-0.5,0.2-9.6-33-9.6-33l6.6-2.3"/>
	<path class="st18" d="M181.2,68.6"/>
	<path class="st9" d="M221.8,86.8c0,0,1.9-24.3-10.4-26.7c-12.3-2.3-29.3,18.5-29.3,18.5l12.7,27.7c-0.5,2.2,5.2,5.4,7,3.2
		c1.8-2.2,0-4.9,3.7-10.1c5.1-6.2,9.7-4,12.7-7.5C221.2,88.3,221.8,86.8,221.8,86.8"/>
	<path class="st3" d="M185,76.3c-4.6,6.6,3.5,13.4,3.5,13.4c-4.4-4.7,1.2-12.2,6.3-15.2c5.1-3,9-7.2,9.2-13.6c0,0-0.5,5.2,2.7,9.4
		s8.9,3.8,11,7.5s1.6,8,6.2,8.1c4.6,0.1,11-8.5,9.1-18.3s-8.2-21.4-20.7-26.5c-12.5-5.1-34.3-8.1-46.8,13s0,28.3,0,28.3"/>
	<path class="st6" d="M208.2,62.7c0,3.3,1.1,6,4.3,7.8c3.2,1.8,4.4,0.2,7.6,4.3c1.6,2,0.6,6.7,5.5,6.7c3.3,0,3.9-4.9,3.9-4.9"/>
	<path class="st6" d="M206,57.6c1.8-1.5,4.6-1.3,5.8,0c1.2,1.3,2.2,5.8,4.5,7.7c2.3,1.8,4.5,1.3,6.3,3.3s2.4,5.3,4.9,5.2
		c2.5-0.1,2.5-2.4,2.5-2.4"/>
	<path class="st6" d="M189.4,72.2c0,0,7.4-4.1,9-10.5c0.6-2.5,0.4-3.5-0.4-4.4s-2.4-0.7-3.9,1.5c-1.4,2.2-5.2,8.3-7.7,8.4"/>
	<path class="st6" d="M201.8,54.1c0,0,0-3.5-5.7-3.5c-5.7,0-7,3.7-8.8,6.3c-1.7,2.6-4.1,5.9-6.2,5.9"/>
	<path class="st9" d="M189.4,111.6c-4.9,0.7-6.3,5.2-11.8,0.7c-6.2-5.2-11.1-24.6-9.1-29.3s6-0.7,4-3.7s-2-5.7,0-8.7s6.7-4.7,8.7-2
		c2,2.7,0,7,0,7s-1,3.5,0,3.2s3-0.9,3-0.9s-1.7,2-1.2,5.6s4.5,7.1,4.5,7.1L189.4,111.6z"/>
	<path class="st19" d="M206.8,99.7c0,0,0.6-1.2-2.8-2.9"/>
	<path class="st20" d="M211.5,95.9c-4.5,1.5-7,4.3-7.2,8.5c1.6,0.5,3.9-0.1,5.7-1.7C212.3,100.6,213,97.6,211.5,95.9"/>
	<path class="st3" d="M172,80.8c0,0-4.6,6.6-1.9,14.1s-13.5,11.8-25,14.4c-11.5,2.6-19.1,10.9-23.5,8.6c-4.4-2.3,2.8-6,5.5-11.6
		c2.7-5.6,19.7-15.8,22.9-23.6C153.1,75,161.8,59,166,53.7"/>
	<line class="st21" x1="209.2" y1="98.5" x2="209.8" y2="98.5"/>
	<line class="st21" x1="207.7" y1="100.2" x2="209.8" y2="100.2"/>
	<path class="st22" d="M200.5,105.2c0,0,0.3-6.5,3-9.3c2.7-2.8,0.5-8.7-0.6-9.9c-1.1-1.2-4.7-4.4-9-4.3s-1.6,0.2-1.6,1.2
		c0,0.6,3.7,7.4,5.1,11.6c0.9,2.8-3.5,9.2-2.9,10.1C196,107,200.5,105.2,200.5,105.2z"/>
	<line class="st19" x1="182.3" y1="75.1" x2="197" y2="91.7"/>
	
		<ellipse transform="matrix(0.7409 -0.6716 0.6716 0.7409 -12.1847 158.1481)" class="st20" cx="198.9" cy="94.9" rx="5.7" ry="4.1"/>
	<line class="st21" x1="197.1" y1="93.2" x2="200.3" y2="93.2"/>
	<line class="st21" x1="197.1" y1="94.9" x2="200.3" y2="94.9"/>
	<path class="st23" d="M184.9,104.3c0.2,0,8.6,4.5,8.6,4.5s-2.1,2.7-5.3,2.9L184.9,104.3z"/>
	<polygon class="st24" points="184.9,104.3 191.4,110.7 193.5,108.9 	"/>
	<path class="st25" d="M179,113.3c-3-1.8-10-18.4-10-23.5"/>
	<path class="st22" d="M180.7,78.4c0,0-4,7.2-2.6,11.4s4.4,10.9,3.3,14.7c-1.1,3.8-1.2,9.3,1.3,9.7c0,0-0.9,0.6-4.3-0.3
		c-4.3-1.2-10.5-18.4-9.4-24.1c0.9-5,1.5-7.2,3.4-9.1c1.4-1.3-1.6-2.5-1.6-4.8c0-2.3,0.3-6.9,6.3-9.4c3.5-1.4,4.8,2.4,5,3.5
		C182.7,72.6,180.7,78,180.7,78.4z"/>
	<path class="st6" d="M206.8,50.6c0,0,4.3-1.4,7.4,0.9c3.1,2.2,2.6,6.5,5.5,8.4c2.9,2,4.5-0.2,6.7,2.3"/>
	<path class="st6" d="M201.8,47.2c-2.9-1.1-9.9-3.4-13.9-1.1s-7,10.4-11.9,14.8c-4.9,4.4-7.8,3.7-11.1,7.7c-3.2,4-0.2,12.8-4,18.1
		s-8.4,5-12.5,11.3c-4.1,6.3-3.5,10.2-8.7,9.5"/>
	<path class="st6" d="M169,79.5c-1.9,2.4,0.6,5.9-2,9.1s-9.1,5.4-10.5,9.7s-2.4,7.1-5,7.1"/>
	<path class="st6" d="M207.7,45.2c3.2-1,4-1.5,6.5,0c2.5,1.5,3.7,5.2,5.5,5.4"/>
	<path class="st6" d="M201.3,42.7c-3.5-1.4-7.1-4-15-2.2c-7.9,1.7-9.7,8.9-13.4,13.2s-11,9.2-14.6,14.2c-3.7,4.9-1.5,14.2-5.2,18.8
		s-12.5,8.2-15.5,11.7s-1.6,13.9-8.2,15c-2,0-2.6,0.6-3.4,0"/>
	<path class="st26" d="M180.3,145.4"/>
	<path class="st22" d="M182.1,140c-0.7,0.7-0.6,2.1-0.4,2.5c0.9,1,1.4-0.6,2,0.8c0.3,0.7-0.9,1.9-0.6,2.8c0.3,0.9,1.9-0.4,2.4,0.7
		c0.5,1-0.9,1.7-0.6,2.5s1.6-0.6,2.4,0.5c0.8,1.1-0.8,1.1-0.2,2.1s1.8,1.1,1.8,1.1s-2.8,0.6-6.2-4.5
		C179.2,143.4,182.1,140,182.1,140z"/>
	<path class="st11" d="M174.5,165.6l41.1-14.3c0,0,66,21.7,78,24.7s13.3,10.8,13,19.6s0,81,0,90.7s7,17.4,15.2,20.5
		c8.6,3.3,50.7,17.9,62,21.5c11.3,3.6,19,6,19,21l-41.1,14.3c0-15-7.7-17.4-19-21c-11.3-3.6-53.4-18.2-62-21.5
		c-8.2-3.2-15.2-10.8-15.2-20.5c0-9.7-0.3-82,0-90.7s-1-16.6-13-19.6s-76-23.7-76-23.7"/>
	<path class="st27" d="M400.7,338.2l-39.9,17.5c0,0,1,3.2,1,7.9c0,10.3,0,27.6,0,33.3c0,8.3,3.8,26,15.2,26
		c6.5-0.9,26-8.3,42.5-14.2c0,0-16.6-6.8-16.6-19.5c0-8.6,0-27.4,0-38.8C402.9,342.5,400.7,338.2,400.7,338.2z"/>
	<path class="st28" d="M371.3,406.6l9.6-4c-0.4,5.8,1.6,10.3,9.6,10.7l-9.3,4.7C374.4,417.7,371.9,414.6,371.3,406.6z"/>
	<path class="st29" d="M373.2,435.2c10.1-23.9,63.5-5.8,63.5-5.8l41.6-18.4c0,0-54-10.3-68.7-5c-14.7,5.3-30.9,17.6-33.7,23.4"/>
	<path class="st7" d="M402.8,355.7c-7.6,0-13.4,10.7-12.2,30.4c0,14.4-1.2,34.6-13.6,36.8c11.7-1.2,28.9-8,45.7-14.5
		c0,0-8-11.2-8-29.9C414.7,359.3,409.4,355.7,402.8,355.7z"/>
	<path class="st27" d="M402.8,355.7l41.1-13.2c9.6-0.3,10.5,11,11.9,22.2c2,15.4,5.2,27.8,10.4,32.3c-5.1,10.8-11.6,21.3-23.5,21.3
		c-7,0-26.5-1.4-28-39.8C414.3,370.1,410,355.7,402.8,355.7z"/>
	<path class="st11" d="M400.1,356.1l39.9-12.7l3.9-0.9c0,0,3.6,0,5.3,1.6l-42.1,13.4C405,355.7,402.9,355.5,400.1,356.1z"/>
	<path class="st8" d="M110.8,282l-4.4,2.1c0,0,3.5,3.2,5.5,4"/>
	<path class="st30" d="M132.9,277.9"/>
	<polyline class="st12" points="259.2,285.2 261.5,279.9 266.1,285.2 	"/>
	<path class="st12" d="M262.7,294c0,0,9.5-3.3,15.2-8"/>
	<path class="st13" d="M606,264.8c0-26.6-3.8-63.2-29.5-67.6c-5-0.9-20.4,1.9-25,4.6l0.1,0c-11.5,5.1-19,20.9-19,48.9
		c0,15.5,0,36.3,0,36.3l62,20.2l11.4-5.5C606,301.7,606,290.4,606,264.8z"/>
	<polyline class="st16" points="269.4,150.3 262.1,160.3 271.6,156.4 	"/>
	<g>
		<line class="st31" x1="597.8" y1="299.3" x2="602.7" y2="297.2"/>
		<line class="st31" x1="597.8" y1="294.5" x2="602.7" y2="292.3"/>
		<line class="st31" x1="597.8" y1="289.6" x2="602.7" y2="287.5"/>
		<line class="st31" x1="597.8" y1="284.7" x2="602.7" y2="282.6"/>
		<line class="st31" x1="597.8" y1="279.8" x2="602.7" y2="277.7"/>
		<line class="st31" x1="597.8" y1="275" x2="602.7" y2="272.8"/>
		<line class="st31" x1="597.8" y1="270.1" x2="602.7" y2="268"/>
		<line class="st31" x1="597.8" y1="265.2" x2="602.7" y2="263.1"/>
		<line class="st31" x1="597.8" y1="260.3" x2="602.7" y2="258.2"/>
		<line class="st31" x1="597.8" y1="255.5" x2="602.7" y2="253.3"/>
		<line class="st31" x1="597.8" y1="250.6" x2="602.7" y2="248.5"/>
		<line class="st31" x1="597.2" y1="245.7" x2="602.1" y2="243.6"/>
		<line class="st31" x1="596.4" y1="240.8" x2="601.3" y2="238.7"/>
		<line class="st31" x1="595.6" y1="236" x2="600.5" y2="233.8"/>
		<line class="st31" x1="599.5" y1="229" x2="594.6" y2="231.1"/>
		<line class="st31" x1="593.2" y1="226.2" x2="598.1" y2="224.1"/>
		<line class="st31" x1="591.2" y1="221.3" x2="596.1" y2="219.2"/>
		<line class="st31" x1="589.2" y1="216.5" x2="594.1" y2="214.3"/>
		<line class="st31" x1="586.8" y1="212.2" x2="591.3" y2="210.2"/>
		<line class="st31" x1="584" y1="208.5" x2="588.3" y2="206.6"/>
		<line class="st31" x1="580.6" y1="205.4" x2="584.6" y2="203.7"/>
		<line class="st31" x1="577.5" y1="202.6" x2="580.1" y2="201.4"/>
		<line class="st31" x1="574.1" y1="200.5" x2="575.1" y2="200.1"/>
		<line class="st31" x1="570.8" y1="199.4" x2="570.8" y2="199.4"/>
	</g>
	<path class="st15" d="M532.7,287.1c0,0,0-21.4,0-36.8c0-37.3,13.8-52.8,32.5-49.6c25.7,4.4,29.5,41.3,29.5,68.1
		c0,25.8,0,38.1,0,38.1L532.7,287.1z"/>
	<g>
		<path class="st11" d="M544.4,239c0-0.3,0.2-0.4,0.4-0.4l6.4,1.8c2.7,0.8,4.8,3.8,4.8,6.8c0,2.3-1.4,3.8-3.4,4.2l3,7.3
			c0.2,0.4,0,0.7-0.4,0.6l-2.3-0.7c-0.2-0.1-0.3-0.2-0.4-0.3l-2.9-7.6l-2.5-0.7l-0.1,6.5c0,0.3-0.2,0.4-0.4,0.4l-2.1-0.6
			c-0.2-0.1-0.4-0.3-0.4-0.6L544.4,239z M550.9,248.4c1.2,0.3,2.2-0.5,2.2-1.9c0-1.3-1-2.7-2.2-3.1l-3.6-1l-0.1,5L550.9,248.4z"/>
		<path class="st11" d="M559.3,243.2c0-0.3,0.2-0.4,0.4-0.4l9.1,2.6c0.2,0.1,0.4,0.3,0.4,0.6l0,2.1c0,0.3-0.2,0.4-0.4,0.4l-6.6-1.9
			l-0.1,4.8l5.5,1.6c0.2,0.1,0.4,0.3,0.4,0.6l0,2.1c0,0.3-0.2,0.4-0.4,0.4l-5.5-1.6l-0.1,6.4c0,0.3-0.2,0.4-0.4,0.4l-2.1-0.6
			c-0.2-0.1-0.4-0.3-0.4-0.6L559.3,243.2z"/>
		<path class="st11" d="M571.9,246.8c0-0.3,0.2-0.4,0.4-0.4l5.3,1.5c2.7,0.8,5,4,4.9,7c0,3.1-2.3,5-5.1,4.3l-2.8-0.8l-0.1,5.9
			c0,0.3-0.2,0.4-0.4,0.4l-2.1-0.6c-0.2-0.1-0.4-0.3-0.4-0.6L571.9,246.8z M577.3,256.1c1.3,0.4,2.3-0.5,2.3-2c0-1.4-1-2.8-2.3-3.1
			l-2.6-0.7l-0.1,5.1L577.3,256.1z"/>
	</g>
	<path class="st17" d="M226.4,266.6"/>
	<path class="st32" d="M258.5,187.6c5.2,1.8,12.9,5.3,12.9,14L283,197c0-5.1-0.6-10-12.6-14.2L258.5,187.6z"/>
	<polygon class="st32" points="247.3,175.7 259.3,171 272.3,174.7 260,179.1 	"/>
	<polygon class="st32" points="341.5,327.4 353.5,322.7 366.6,326.4 354.2,330.8 	"/>
	<polygon class="st32" points="344.8,340 356.8,335.3 369.8,339 357.5,343.4 	"/>
	<path class="st11" d="M402.8,349.3"/>
	<path class="st27" d="M262.1,195.6l40.5-15c5.4,5.4,3.8,16.4,3.8,16.4l0.2,91.2c0,0,0.8,6.1,3.7,9.6l-40,16.4
		c-4-4.5-4.8-8.4-4.8-13.7c0-5.3,0-95.1,0-95.1S265.8,198.6,262.1,195.6z"/>
	<polygon class="st28" points="288.6,242.9 300,238.6 300,256.4 288.5,260.5 	"/>
	<polygon class="st28" points="273.1,273.3 284.5,268.9 284.5,286.7 273,290.8 	"/>
	<g>
		<line class="st33" x1="202.9" y1="170.8" x2="226.4" y2="160.7"/>
		<line class="st33" x1="209.6" y1="172.7" x2="233" y2="162.5"/>
		<line class="st33" x1="216.3" y1="174.5" x2="239.7" y2="164.3"/>
		<line class="st33" x1="222.9" y1="176.3" x2="246.3" y2="166.2"/>
		<line class="st33" x1="229.6" y1="178.2" x2="253" y2="168"/>
		<line class="st34" x1="273.1" y1="207.5" x2="300" y2="195.8"/>
		<line class="st33" x1="289.1" y1="320.1" x2="316" y2="308.4"/>
		<line class="st33" x1="296.8" y1="322.7" x2="323.7" y2="311"/>
		<line class="st33" x1="304.5" y1="325.3" x2="331.4" y2="313.6"/>
		<line class="st33" x1="312.2" y1="327.8" x2="339.1" y2="316.1"/>
		<line class="st33" x1="319.9" y1="330.4" x2="346.8" y2="318.7"/>
		<line class="st33" x1="284.2" y1="186.6" x2="294" y2="182.4"/>
		<line class="st33" x1="364.6" y1="333.8" x2="374.4" y2="329.5"/>
		<line class="st33" x1="371.1" y1="335.9" x2="380.9" y2="331.7"/>
		<line class="st34" x1="286.7" y1="190.1" x2="296.5" y2="185.8"/>
		<line class="st34" x1="273" y1="254.7" x2="282.8" y2="250.4"/>
		<line class="st34" x1="273" y1="259.8" x2="282.8" y2="255.5"/>
		<line class="st34" x1="290" y1="274.1" x2="299.8" y2="269.9"/>
		<line class="st34" x1="290" y1="279.2" x2="299.8" y2="275"/>
		<line class="st34" x1="273.1" y1="213.3" x2="300" y2="201.6"/>
		<line class="st34" x1="273.1" y1="219.2" x2="300" y2="207.5"/>
		<line class="st34" x1="273.1" y1="225" x2="300" y2="213.3"/>
		<line class="st34" x1="281.3" y1="227.3" x2="300" y2="219.2"/>
		<line class="st34" x1="281.3" y1="233.1" x2="300" y2="225"/>
		<line class="st34" x1="281.3" y1="239" x2="300" y2="230.9"/>
		<line class="st34" x1="273.2" y1="230.7" x2="275.4" y2="229.8"/>
		<line class="st34" x1="273.2" y1="236.4" x2="275.4" y2="235.5"/>
		<line class="st34" x1="273.2" y1="242" x2="275.4" y2="241.2"/>
		<line class="st34" x1="369.8" y1="362.6" x2="396.8" y2="351"/>
		<line class="st34" x1="369.8" y1="368.5" x2="396.8" y2="356.8"/>
		<line class="st34" x1="418.3" y1="361.5" x2="447.2" y2="351.8"/>
		<line class="st34" x1="420" y1="368" x2="448.8" y2="358.3"/>
		<line class="st34" x1="421.2" y1="374.7" x2="450" y2="365"/>
		<line class="st34" x1="422.3" y1="381" x2="451.1" y2="371.3"/>
		<line class="st34" x1="422.4" y1="388.2" x2="451.2" y2="378.5"/>
		<line class="st34" x1="423.5" y1="395" x2="452.4" y2="385.3"/>
		<line class="st34" x1="425.8" y1="401.2" x2="454.6" y2="391.5"/>
		<line class="st34" x1="428.1" y1="406.1" x2="456.9" y2="396.4"/>
		<line class="st34" x1="431.9" y1="410.3" x2="460.8" y2="400.5"/>
		<line class="st34" x1="441.4" y1="411.7" x2="470.3" y2="402"/>
		<line class="st34" x1="451.1" y1="412.6" x2="479.9" y2="402.9"/>
		<line class="st34" x1="369.8" y1="374.3" x2="396.8" y2="362.6"/>
		<line class="st34" x1="369.8" y1="380.2" x2="396.8" y2="368.5"/>
		<line class="st34" x1="378.1" y1="382.5" x2="396.8" y2="374.3"/>
		<line class="st34" x1="378.1" y1="388.3" x2="396.8" y2="380.2"/>
		<line class="st34" x1="378.1" y1="394.2" x2="396.8" y2="386"/>
		<line class="st34" x1="369.9" y1="385.9" x2="372.1" y2="385"/>
		<line class="st34" x1="369.9" y1="391.6" x2="372.1" y2="390.7"/>
		<line class="st34" x1="369.9" y1="397.2" x2="372.1" y2="396.4"/>
	</g>
	<path class="st28" d="M268.3,193.3c1.9,2.1,3.1,4.8,3.1,8.3L283,197c1.2-3.1,0.5-5.8-2-8.4L268.3,193.3z"/>
	<path class="st7" d="M446.4,418.2c8.3-2.2,35.2-13.8,44.3-19.7c0,0,11.8-5.9,17.3-18c8.9-19.8,13.8-25.3,13.8-25.3
		s-4.2-3.5-15.2-3.5s-24.5,5.3-34.2,30.7C462.4,408.2,457.4,414.1,446.4,418.2z"/>
	<path class="st11" d="M494.6,354.2c0,0,49.9-28.3,69.5-10.3c9.7,8.8,10.7,24,10.7,24L535.1,386c0,0,3.6-13.7-4.1-23.4
		C518.4,346.6,494.6,354.2,494.6,354.2z"/>
	<path class="st27" d="M531,362.6l37.6-13.7c0,0,5.6,7.6,6.2,18.9L535.1,386C535.1,386,538.8,371.3,531,362.6z"/>
	<polygon class="st35" points="213.9,150.5 206.4,144 204,145.9 226.9,165.7 230.5,166.5 228.8,163.4 	"/>
	<path class="st9" d="M209,159.7c0,0,5.2-7.7,9.9-7.3s6.4,8.2,6.4,8.2c0.7,6.1-2.3,9.5-13.4,6.1"/>
	<path class="st22" d="M224.2,166.2c0.8-0.6,0.9-2,0.7-2.4c-0.8-1.1-1.5,0.4-1.9-1c-0.2-0.8,1.1-1.8,1-2.7s-1.9,0.1-2.3-1
		s1.1-1.6,0.9-2.4c-0.2-0.9-1.7,0.4-2.4-0.8c-0.7-1.2,1-0.9,0.5-2.1c-0.5-1.1-1.7-1.3-1.7-1.3s2.8-0.2,5.6,5.2
		C227.6,163.1,224.2,166.2,224.2,166.2z"/>
	<polygon class="st36" points="226.9,165.7 228.8,163.4 230.5,166.5 	"/>
	<path class="st16" d="M133.9,134.3l7.5,30.5c1,5.5,5.8,6.5,11,5.2s60.2-2.6,60.2-2.6s4.4-5.6-1.1-10.9c0,0-59-5.8-60-5.3l9.1-1.1
		l-4.1-20.4c0,0-2-17-12-15.6C130.5,114.2,133.9,134.3,133.9,134.3z"/>
	<line class="st37" x1="377.7" y1="439.4" x2="400.6" y2="430.6"/>
	<line class="st38" x1="379.2" y1="433.8" x2="401.6" y2="425.7"/>
	<line class="st39" x1="378.4" y1="444" x2="400.6" y2="435.5"/>
	<line class="st40" x1="379.9" y1="448.6" x2="403.4" y2="439.4"/>
	<path class="st32" d="M515.5,350.7l12.5-3.9c6,0.9,11.8,3.3,11.8,3.3l-12.6,4.3C524.7,352.8,519.1,350.9,515.5,350.7z"/>
	<path class="st32" d="M545,350.1l12.5-4.7c6,3.3,7.7,6.8,9.2,12l-12.6,4.6C552.6,356.7,550.2,353.1,545,350.1z"/>
	<path class="st28" d="M564.1,351.1c1.2,1.8,1.9,3.9,2.6,6.3l-12.6,4.6c-0.8-2.6-1.6-4.6-2.9-6.4L564.1,351.1z"/>
	<line class="st41" x1="537.9" y1="362.5" x2="547.1" y2="359.4"/>
	<line class="st41" x1="539.6" y1="367.4" x2="548.8" y2="364.3"/>
	<line class="st41" x1="541.5" y1="372.9" x2="550.7" y2="369.8"/>
	<line class="st42" x1="534.7" y1="359.1" x2="544.4" y2="355.8"/>
	<line class="st42" x1="535.2" y1="345.2" x2="545" y2="341.9"/>
	<line class="st42" x1="540.1" y1="346.8" x2="549.9" y2="343.6"/>
</g>
</svg>
