<svg id="Layer_1" data-name="Layer 1" xmlns="http://www.w3.org/2000/svg" viewBox="0 0 187.96 90.49"><defs><style>.cls-1{fill:#4ae5b8;}</style></defs><title>nicole_web</title><path class="cls-1" d="M183.22,63,144.47,24.27V90.49h27.37C186.18,90.49,193.36,73.16,183.22,63Z"/><path class="cls-1" d="M80.17,47.05A10.82,10.82,0,0,0,76,46.2a10.28,10.28,0,0,0-7.33,3.13L27.53,90.49H86.67V56.78A10.24,10.24,0,0,0,80.17,47.05Z"/><path class="cls-1" d="M12.29,90,60.82,41.48a21.65,21.65,0,0,1,37,15.31V90.49h35.56V13.76a63.26,63.26,0,0,0-84.11,4.76L4.74,63C-4.44,72.2.61,87.25,12.29,90Z"/></svg>