<svg id="Layer_1" data-name="Layer 1" xmlns="http://www.w3.org/2000/svg" viewBox="0 0 180.46 207.84"><defs><style>.cls-1{fill:#dbb932;}</style></defs><title>nicole</title><circle class="cls-1" cx="90.23" cy="103.92" r="54"/><path class="cls-1" d="M88.75.85a1.71,1.71,0,0,1,3,0l9.67,16.75,9.42,16.32a1.43,1.43,0,0,1-1.61,2.1l-1.38-.37a67.66,67.66,0,0,0-35.16,0L71.27,36a1.43,1.43,0,0,1-1.61-2.1l9.42-16.32Z"/><path class="cls-1" d="M.23,53.67a1.71,1.71,0,0,1,1.48-2.56H39.89a1.43,1.43,0,0,1,1,2.44l-1,1A67.66,67.66,0,0,0,22.31,85l-.37,1.38a1.43,1.43,0,0,1-2.62.35L9.9,70.42Z"/><path class="cls-1" d="M1.71,156.73a1.71,1.71,0,0,1-1.48-2.56L9.9,137.42l9.42-16.32a1.43,1.43,0,0,1,2.62.35l.37,1.38a67.66,67.66,0,0,0,17.58,30.45l1,1a1.43,1.43,0,0,1-1,2.44H1.71Z"/><path class="cls-1" d="M91.71,207a1.71,1.71,0,0,1-3,0l-9.67-16.75-9.42-16.32a1.43,1.43,0,0,1,1.61-2.1l1.38.37a67.66,67.66,0,0,0,35.16,0l1.38-.37a1.43,1.43,0,0,1,1.61,2.1l-9.42,16.32Z"/><path class="cls-1" d="M180.22,154.17a1.71,1.71,0,0,1-1.48,2.56H140.56a1.43,1.43,0,0,1-1-2.44l1-1a67.66,67.66,0,0,0,17.58-30.45l.37-1.38a1.43,1.43,0,0,1,2.62-.35l9.42,16.32Z"/><path class="cls-1" d="M178.75,51.11a1.71,1.71,0,0,1,1.48,2.56l-9.67,16.75-9.42,16.32a1.43,1.43,0,0,1-2.62-.35L158.14,85a67.66,67.66,0,0,0-17.58-30.45l-1-1a1.43,1.43,0,0,1,1-2.44h38.19Z"/></svg>